<?xml version="1.0" standalone="no"?>
<!DOCTYPE svg PUBLIC "-//W3C//DTD SVG 1.1//EN" "http://www.w3.org/Graphics/SVG/1.1/DTD/svg11.dtd" >
<svg>
<metadata>
Created by FontForge 20120731 at Mon Dec  7 10:49:30 2020
 By ffonts
Copyright 2011 The Emberly Project Authors https:github.comrajputrajesh448Fonts
</metadata>
<defs>
<font id="Emberly-Bold" horiz-adv-x="399" >
  <font-face 
    font-family="Emberly"
    font-weight="700"
    font-stretch="normal"
    units-per-em="1000"
    panose-1="0 0 0 0 0 0 0 0 0 0"
    ascent="800"
    descent="-200"
    x-height="495"
    cap-height="699"
    bbox="-26 -187 1130 859"
    underline-thickness="0"
    underline-position="0"
    unicode-range="U+000D-FB03"
  />
<missing-glyph horiz-adv-x="1000" 
d="M518 699h474v-699h-474v699zM569 658v-609h373v609h-373z" />
    <glyph glyph-name="fi" unicode="fi" horiz-adv-x="397" 
d="M34 0v16h39v463h-57v16h57v88c0 76 45 121 136 121c94 0 118 -56 118 -97c0 -49 -46 -67 -79 -43c-19 12 -26 33 -9 65c17 41 -2 59 -22 59c-44 0 -47 -48 -47 -81v-112h191v-479h35v-16h-170v16h36v463h-92v-463h39v-16h-175z" />
    <glyph glyph-name="fl" unicode="fl" horiz-adv-x="478" 
d="M34 0v16h39v463h-57v16h57v88c0 76 45 121 136 121c94 0 118 -56 118 -97c0 -49 -46 -67 -79 -43c-19 12 -26 33 -9 65c17 41 -2 59 -22 59c-44 0 -47 -48 -47 -81v-112h86v-16h-86v-463h39v-16h-175zM303 0v16h39v673h-39v16h135v-689h39v-16h-174z" />
    <glyph glyph-name="f_f" unicode="ff" horiz-adv-x="527" 
d="M170 607v-112h101v59c-8 1 -16 4 -23 10c-19 12 -26 33 -9 65c17 41 -2 59 -22 59c-44 0 -47 -48 -47 -81zM34 0v16h39v463h-57v16h57v88c0 76 45 121 136 121c47 0 77 -14 95 -33c22 21 57 33 103 33c95 0 119 -56 119 -97c0 -49 -46 -67 -79 -43c-19 12 -26 33 -10 65
c17 41 -1 59 -22 59c-43 0 -46 -48 -46 -81v-112h85v-16h-85v-463h39v-16h-176v16h39v463h-101v-463h39v-16h-175z" />
    <glyph glyph-name="f_f_i" unicode="ffi" horiz-adv-x="598" 
d="M170 607v-112h101v59c-8 1 -16 4 -23 10c-19 12 -26 33 -9 65c17 41 -2 59 -22 59c-44 0 -47 -48 -47 -81zM34 0v16h39v463h-57v16h57v88c0 76 45 121 136 121c47 0 77 -14 95 -33c22 21 57 33 103 33c95 0 119 -56 119 -97c0 -49 -46 -67 -79 -43c-19 12 -26 33 -10 65
c17 41 -1 59 -22 59c-43 0 -46 -48 -46 -81v-112h193v-479h35v-16h-170v16h36v463h-94v-463h39v-16h-176v16h39v463h-101v-463h39v-16h-175z" />
    <glyph glyph-name=".notdef" horiz-adv-x="1000" 
d="M518 699h474v-699h-474v699zM569 658v-609h373v609h-373z" />
    <glyph glyph-name="NULL" horiz-adv-x="0" 
 />
    <glyph glyph-name="NULL" horiz-adv-x="0" 
 />
    <glyph glyph-name="CR" unicode="&#xd;" horiz-adv-x="250" 
 />
    <glyph glyph-name="space" unicode=" " horiz-adv-x="174" 
 />
    <glyph glyph-name="H" unicode="H" horiz-adv-x="466" 
d="M24 699h194v-16h-45v-326h144v326h-45v16h194v-16h-45v-667h45v-16h-194v16h45v325h-144v-325h45v-16h-194v16h45v667h-45v16z" />
    <glyph glyph-name="I" unicode="I" horiz-adv-x="218" 
d="M24 0v16h45v667h-45v16h194v-16h-45v-667h45v-16h-194z" />
    <glyph glyph-name="J" unicode="J" horiz-adv-x="363" 
d="M171 -6c-59 0 -133 29 -133 119c0 57 68 81 97 43c24 -30 -6 -64 -6 -99c0 -34 17 -47 45 -47c24 0 47 11 47 62v611h-45v16h194v-16h-45v-564c0 -93 -94 -125 -154 -125z" />
    <glyph glyph-name="K" unicode="K" horiz-adv-x="464" 
d="M24 0v16h45v667h-45v16h195v-16h-45v-320l175 320h-42v16h111v-16h-49l-123 -229l163 -438h48v-16h-196v16h40l-127 342v-342h45v-16h-195z" />
    <glyph glyph-name="L" unicode="L" horiz-adv-x="340" 
d="M24 0v16h45v667h-45v16h194v-16h-45v-667h71c60 0 73 25 73 143h16v-159h-309z" />
    <glyph glyph-name="M" unicode="M" horiz-adv-x="544" 
d="M350 0v16h45v645h-3l-122 -661h-20l-162 640h-3v-624h45v-16h-106v16h45v667h-45v16h155l114 -466h1l87 466h162v-16h-45v-667h45v-16h-193z" />
    <glyph glyph-name="N" unicode="N" horiz-adv-x="422" 
d="M24 16h45v667h-45v16h148l185 -458h2v442h-45v16h107v-16h-45v-683h-24l-263 641h-2v-625h45v-16h-108v16z" />
    <glyph glyph-name="Q" unicode="Q" horiz-adv-x="465" 
d="M106 189v329c0 101 81 187 180 187c97 0 179 -84 179 -187v-329c0 -109 -81 -195 -180 -195c-41 -1 -74 -37 -73 -36c79 40 86 -17 151 -34c39 -10 53 5 74 36l10 -4c-19 -33 -66 -86 -143 -65c-49 13 -97 49 -142 0l-11 5c23 42 48 82 103 101c-84 16 -148 94 -148 192z
M212 593v-486c0 -72 25 -97 74 -97c47 0 74 25 74 97v486c0 66 -28 96 -74 96s-74 -31 -74 -96z" />
    <glyph glyph-name="S" unicode="S" horiz-adv-x="396" 
d="M82 477c-76 149 32 231 118 231c37 0 71 -11 94 -33c13 2 17 10 17 24h16v-154h-16v49c0 68 -45 91 -86 91c-57 0 -102 -52 -54 -151c46 -95 93 -196 152 -315c64 -129 -19 -227 -117 -227c-35 0 -78 12 -108 36c-21 -1 -21 -13 -21 -28h-16v174h16v-70
c0 -59 57 -92 99 -92c73 0 101 78 32 211c-34 65 -75 151 -126 254z" />
    <glyph glyph-name="T" unicode="T" horiz-adv-x="405" 
d="M125 0v16h45v667h-54c-41 0 -62 -25 -62 -122h-16v138h368v-138h-16c0 97 -21 122 -62 122h-54v-667h45v-16h-194z" />
    <glyph glyph-name="U" unicode="U" horiz-adv-x="416" 
d="M69 683h-45v16h194v-16h-45v-559c0 -93 24 -114 69 -114c35 0 113 14 113 156v517h-45v16h106v-16h-45v-517c0 -102 -34 -172 -140 -172c-70 0 -162 32 -162 158v531z" />
    <glyph glyph-name="W" unicode="W" horiz-adv-x="637" 
d="M265 0h-16l-164 683h-47v16h196v-16h-43l101 -438l46 251l-43 187h-48v16h190v-16h-42l102 -435l76 435h-45v16h109v-16h-47l-120 -683h-17l-104 449z" />
    <glyph glyph-name="X" unicode="X" horiz-adv-x="460" 
d="M53 0v16h48l103 325l-110 342h-48v16h199v-16h-43l81 -250l79 250h-42v16h108v-16h-47l-89 -280l124 -387h48v-16h-198v16h42l-94 294l-95 -294h42v-16h-108z" />
    <glyph glyph-name="Y" unicode="Y" horiz-adv-x="456" 
d="M166 0v16h47v297l-128 373h-47v13h199v-13h-43l112 -332h2l82 332h-43v13h109v-13h-48l-91 -372v-298h43v-16h-194z" />
    <glyph glyph-name="Z" unicode="Z" horiz-adv-x="429" 
d="M297 683h-100c-53 0 -76 -7 -76 -133h-17v149h312l-229 -683h139c60 0 86 5 86 163h16v-179h-358z" />
    <glyph glyph-name="c" unicode="c" horiz-adv-x="364" 
d="M76 370c0 50 58 131 159 131c85 0 131 -58 131 -116c0 -42 -26 -60 -53 -60c-35 0 -71 28 -46 86c19 46 -1 74 -34 74c-34 0 -57 -29 -57 -69v-332c0 -50 25 -73 60 -73c68 0 119 65 119 125v45h16v-46c0 -60 -45 -140 -139 -140c-82 0 -156 62 -156 145v230z" />
    <glyph glyph-name="e" unicode="e" horiz-adv-x="365" 
d="M76 361c0 60 58 140 151 140c88 0 144 -73 144 -143v-114h-195v-161c0 -37 17 -72 63 -72c65 0 116 63 116 125v45h17v-46c0 -60 -45 -140 -140 -140c-93 0 -156 76 -156 145v221zM176 422v-162h95v162c0 24 -9 63 -44 63c-36 0 -51 -39 -51 -63z" />
    <glyph glyph-name="f" unicode="f" horiz-adv-x="328" 
d="M34 0v16h39v463h-57v16h57v88c0 76 45 121 136 121c94 0 118 -56 118 -97c0 -49 -46 -67 -79 -43c-19 12 -26 33 -9 65c17 41 -2 59 -22 59c-44 0 -47 -48 -47 -81v-112h86v-16h-86v-463h39v-16h-175z" />
    <glyph glyph-name="h" unicode="h" horiz-adv-x="396" 
d="M24 0v16h39v673h-39v16h135v-275c19 45 57 68 95 68c45 0 106 -35 106 -105v-377h39v-16h-172v16h34v410c0 22 -7 46 -29 46c-32 0 -73 -48 -73 -102v-354h35v-16h-170z" />
    <glyph glyph-name="i" unicode="i" horiz-adv-x="195" 
d="M57 615c0 31 24 54 55 54c32 0 56 -23 56 -54c0 -32 -24 -56 -56 -56c-31 0 -55 24 -55 56zM24 0v16h39v463h-39v16h135v-479h39v-16h-174z" />
    <glyph glyph-name="j" unicode="j" horiz-adv-x="305" 
d="M166 615c0 31 23 54 55 54s56 -23 56 -54c0 -32 -24 -56 -56 -56s-55 24 -55 56zM270 -50c0 -100 -73 -123 -136 -123c-57 0 -118 23 -118 98c0 54 56 68 85 38c21 -23 10 -51 5 -64c-18 -46 2 -56 22 -56c39 0 46 53 46 84v552h-36v16h132v-545z" />
    <glyph glyph-name="k" unicode="k" horiz-adv-x="418" 
d="M29 0v16h39v667h-44v16h185v-16h-44v-382l131 178h-32v16h91v-16h-41l-77 -113l139 -350h43v-16h-181v16h38l-111 278v-278h44v-16h-180z" />
    <glyph glyph-name="l" unicode="l" horiz-adv-x="195" 
d="M24 0v16h39v673h-39v16h135v-689h39v-16h-174z" />
    <glyph glyph-name="m" unicode="m" horiz-adv-x="583" 
d="M16 0v16h40v463h-40v16h136v-64c14 38 45 67 86 67c36 0 91 -22 106 -78c13 48 51 78 95 78s104 -29 104 -104v-378h39v-16h-172v16h34v396c0 44 -9 60 -28 60c-33 0 -69 -49 -69 -101v-355h33v-16h-166v16h34v408c0 31 -16 48 -32 48c-27 0 -64 -49 -64 -99v-357h34v-16
h-170z" />
    <glyph glyph-name="n" unicode="n" 
d="M16 0v16h39v463h-39v16h137v-66c18 45 54 69 94 69c44 0 112 -27 112 -104v-378h39v-16h-175v16h35v403c0 37 -13 54 -34 54c-36 0 -71 -55 -71 -101v-356h34v-16h-171z" />
    <glyph glyph-name="o" unicode="o" horiz-adv-x="381" 
d="M76 141v213c0 69 59 147 152 147c91 0 154 -78 154 -147v-213c0 -71 -58 -146 -150 -146c-91 0 -156 75 -156 146zM176 418v-342c0 -32 22 -65 55 -65c32 0 51 33 51 65v342c0 32 -20 67 -52 67c-33 0 -54 -35 -54 -67z" />
    <glyph glyph-name="p" unicode="p" horiz-adv-x="385" 
d="M159 98c0 -47 34 -80 60 -80c22 0 42 21 42 63v336c0 40 -23 62 -44 62c-26 0 -58 -34 -58 -83v-298zM24 -153h39v632h-39v16h135v-48c13 36 40 54 73 54c55 0 128 -47 128 -145v-212c0 -79 -59 -147 -126 -147c-38 0 -63 21 -75 54v-204h39v-16h-174v16z" />
    <glyph glyph-name="q" unicode="q" horiz-adv-x="383" 
d="M276 98v298c0 49 -31 83 -57 83c-21 0 -44 -22 -44 -62v-336c0 -42 20 -63 42 -63c26 0 59 33 59 80zM276 -153v204c-11 -33 -37 -54 -74 -54c-67 0 -126 68 -126 147v212c0 98 73 145 128 145c33 0 60 -18 72 -54v48h135v-16h-39v-632h39v-16h-174v16h39z" />
    <glyph glyph-name="r" unicode="r" horiz-adv-x="343" 
d="M16 0v16h39v463h-39v16h135v-62c12 35 36 61 81 61c62 0 108 -51 108 -107c0 -42 -23 -62 -55 -62c-50 0 -58 51 -41 91c5 22 8 59 -26 59c-49 0 -67 -76 -67 -110v-349h39v-16h-174z" />
    <glyph glyph-name="s" unicode="s" horiz-adv-x="327" 
d="M49 138v-57c0 -42 48 -66 86 -66c49 0 80 38 28 128c-30 52 -71 123 -106 182c-67 110 33 176 106 175c25 1 52 -7 73 -23c12 0 22 3 22 18h16v-124h-16v29c0 56 -37 77 -72 77c-41 0 -81 -30 -41 -99c49 -86 101 -176 123 -215c54 -93 -28 -170 -114 -170
c-30 0 -64 9 -88 27c-11 -1 -17 -6 -17 -20h-16v138h16z" />
    <glyph glyph-name="t" unicode="t" horiz-adv-x="258" 
d="M16 479v16h57v113l97 33v-146h86v-16h-86v-424c0 -27 9 -37 25 -37c15 0 33 13 33 48h16c0 -49 -32 -72 -71 -72s-100 21 -100 91v394h-57z" />
    <glyph glyph-name="u" unicode="u" 
d="M398 16v-16h-136v67c-19 -45 -55 -70 -96 -70c-44 0 -111 30 -111 104v378h-39v16h140v-420c0 -34 13 -53 32 -53c41 0 74 60 74 99v358h-39v16h136v-479h39z" />
    <glyph glyph-name="v" unicode="v" horiz-adv-x="355" 
d="M210 0h-12l-135 479h-41v16h180v-16h-36l73 -269l57 269h-37v16h97v-16h-42z" />
    <glyph glyph-name="w" unicode="w" horiz-adv-x="567" 
d="M211 0h-12l-134 479h-43v16h181v-16h-36l74 -268l47 218l-14 50h-42v16h181v-16h-36l73 -262l56 262h-36v16h97v-16h-43l-104 -479h-11l-110 391z" />
    <glyph glyph-name="x" unicode="x" horiz-adv-x="395" 
d="M22 0v16h44l98 222l-95 241h-42v16h178v-16h-35l58 -146l64 146h-35v16h98v-16h-45l-74 -167l117 -296h43v-16h-178v16h33l-77 198l-90 -198h35v-16h-97z" />
    <glyph glyph-name="z" unicode="z" horiz-adv-x="341" 
d="M294 119h16v-119h-294l179 479h-67c-50 0 -63 -8 -63 -82h-16v98h261l-179 -479h102c49 0 61 6 61 103z" />
    <glyph glyph-name="zero" unicode="0" horiz-adv-x="398" 
d="M106 188v325c0 99 75 192 164 192c90 0 168 -92 168 -192v-325c0 -107 -77 -194 -167 -194c-89 0 -165 87 -165 194zM205 592v-483c0 -69 23 -99 66 -99c44 0 69 29 69 99v483c0 64 -25 97 -69 97c-43 0 -66 -34 -66 -97z" />
    <glyph glyph-name="one" unicode="1" horiz-adv-x="287" 
d="M119 16h56v628c-26 -10 -59 -21 -64 -22l-5 15c57 17 86 35 123 62h42v-683h56v-16h-208v16z" />
    <glyph glyph-name="two" unicode="2" horiz-adv-x="402" 
d="M180 528c-45 -14 -69 23 -69 68c0 64 59 109 151 109c196 0 193 -207 102 -317c-66 -82 -229 -166 -244 -368l1 1c14 42 40 104 106 104c50 0 81 -37 144 -37c66 0 58 35 60 54h11c2 -15 16 -113 -63 -141c-73 -27 -124 40 -188 40c-45 0 -70 -34 -75 -41h-6
c0 246 116 347 165 419c77 114 69 270 -21 270c-17 0 -67 -4 -46 -77c7 -30 14 -71 -28 -84z" />
    <glyph glyph-name="three" unicode="3" horiz-adv-x="408" 
d="M215 369h60c46 0 66 36 66 99v136c0 31 -9 83 -79 85c-34 2 -75 -10 -64 -65c7 -32 31 -82 -23 -97c-44 -12 -69 24 -69 68c0 61 58 110 147 110c99 0 187 -64 187 -162v-51c0 -68 -43 -113 -108 -130c68 -14 117 -56 117 -124v-80c0 -98 -95 -164 -187 -164
c-73 0 -144 40 -144 114c0 56 36 75 72 63c47 -16 30 -63 19 -104c-6 -30 14 -57 54 -57c45 0 87 18 87 87v160c0 55 -29 99 -75 99h-60v13z" />
    <glyph glyph-name="four" unicode="4" horiz-adv-x="390" 
d="M278 519h-3l-147 -374v-2h150v376zM233 16h45v111h-172v10l226 562h42v-556h55l2 -16h-57v-111h45v-16h-186v16z" />
    <glyph glyph-name="five" unicode="5" horiz-adv-x="360" 
d="M232 -6c-66 0 -126 34 -126 118c0 29 26 64 61 52c41 -15 34 -69 29 -92c-8 -44 10 -62 44 -62c45 0 62 26 62 93v222c0 34 -11 97 -72 97c-42 0 -77 -26 -77 -64v-19h-18v360h251v-2c-28 -70 -92 -87 -233 -87v-216c26 43 72 48 94 48c79 0 154 -55 154 -135v-129
c0 -73 -41 -184 -169 -184z" />
    <glyph glyph-name="six" unicode="6" horiz-adv-x="413" 
d="M288 -6c-107 0 -182 92 -182 188v352c0 100 76 171 187 171c68 0 148 -30 148 -110c0 -32 -11 -71 -52 -71s-64 38 -42 87c21 59 -24 78 -64 78c-54 0 -76 -33 -76 -87v-221c18 37 59 61 116 61c97 0 131 -72 131 -142v-141c0 -99 -76 -165 -166 -165zM289 415
c-46 0 -82 -37 -82 -97v-215c0 -72 31 -93 73 -93c41 0 74 20 74 92v223c0 65 -29 90 -65 90z" />
    <glyph glyph-name="seven" unicode="7" horiz-adv-x="397" 
d="M193 54c0 285 106 264 194 556h-215c-40 0 -54 -20 -54 -59h-12v148h332l-24 -62c-79 -235 -110 -334 -110 -583c0 -83 -111 -83 -111 0z" />
    <glyph glyph-name="eight" unicode="8" horiz-adv-x="439" 
d="M244 358c-63 18 -129 71 -129 142v57c0 77 82 148 179 148c95 0 177 -70 177 -148v-57c0 -70 -65 -124 -129 -142c69 -18 138 -74 138 -149v-60c0 -84 -92 -154 -187 -154c-96 0 -187 70 -187 154v60c0 76 69 131 138 149zM293 368c47 0 73 29 73 99v124
c0 63 -25 98 -72 98c-48 0 -73 -35 -73 -98v-124c0 -70 25 -99 72 -99zM293 11c47 0 74 28 74 98v141c0 63 -26 98 -74 98c-47 0 -74 -35 -74 -98v-141c0 -70 27 -98 74 -98z" />
    <glyph glyph-name="nine" unicode="9" horiz-adv-x="413" 
d="M272 705c107 0 182 -92 182 -188v-344c0 -80 -72 -179 -186 -179c-59 0 -147 30 -147 110c0 36 19 71 57 71c45 0 55 -43 43 -80c-17 -56 1 -85 51 -85c49 0 82 29 82 88v275c-19 -37 -60 -61 -117 -61c-96 0 -131 72 -131 142v86c0 99 76 165 166 165zM273 339
c46 0 81 37 81 97v160c0 72 -31 93 -73 93s-74 -20 -74 -92v-167c0 -66 28 -91 66 -91z" />
    <glyph glyph-name="dollar" unicode="$" horiz-adv-x="396" 
d="M87 477c-71 139 17 219 99 230l-20 46h74l-20 -46c31 -2 59 -13 79 -32c13 2 17 10 17 24h16v-154h-16v49c0 68 -45 91 -86 91c-57 0 -102 -52 -54 -151c46 -95 93 -196 152 -315c62 -125 -14 -221 -108 -227l22 -45h-74l22 46c-30 4 -63 16 -87 35
c-21 -1 -21 -13 -21 -28h-16v174h16v-70c0 -59 57 -92 99 -92c73 0 101 78 32 211c-34 65 -75 151 -126 254z" />
    <glyph glyph-name="D" unicode="D" horiz-adv-x="440" 
d="M24 16h45v667h-45v16h216c73 0 158 -78 158 -165v-359c0 -86 -81 -175 -153 -175h-221v16zM174 683v-667h63c39 0 56 40 56 106v457c0 59 -17 104 -64 104h-55z" />
    <glyph glyph-name="ellipsis" unicode="&#x2026;" horiz-adv-x="502" 
d="M106 52c0 31 23 55 55 55s56 -24 56 -55c0 -32 -24 -56 -56 -56s-55 24 -55 56zM249 52c0 31 23 55 54 55c32 0 56 -24 56 -55c0 -32 -24 -56 -56 -56c-31 0 -54 24 -54 56zM391 52c0 31 23 55 55 55s56 -24 56 -55c0 -32 -24 -56 -56 -56s-55 24 -55 56z" />
    <glyph glyph-name="exclam" unicode="!" horiz-adv-x="219" 
d="M174 131h-21c-6 144 -45 391 -45 525c0 61 111 61 111 0c0 -132 -39 -382 -45 -525zM109 52c0 31 24 55 55 55c32 0 56 -24 56 -55c0 -32 -24 -56 -56 -56c-31 0 -55 24 -55 56z" />
    <glyph glyph-name="period" unicode="." horiz-adv-x="186" 
d="M76 52c0 31 23 55 55 55c31 0 55 -24 55 -55c0 -32 -24 -56 -55 -56c-32 0 -55 24 -55 56z" />
    <glyph glyph-name="comma" unicode="," horiz-adv-x="190" 
d="M154 2c-40 -17 -78 7 -78 49c0 36 27 56 55 56c31 0 60 -23 60 -82c0 -38 -12 -104 -92 -119l-4 14c46 14 59 52 59 82z" />
    <glyph glyph-name="colon" unicode=":" horiz-adv-x="217" 
d="M106 366c0 32 23 55 55 55s56 -23 56 -55s-24 -56 -56 -56s-55 24 -55 56zM106 52c0 31 23 55 55 55s56 -24 56 -55c0 -32 -24 -56 -56 -56s-55 24 -55 56z" />
    <glyph glyph-name="semicolon" unicode=";" horiz-adv-x="222" 
d="M108 366c0 32 23 55 54 55c32 0 56 -23 56 -55s-24 -56 -56 -56c-31 0 -54 24 -54 56zM184 2c-40 -17 -78 7 -78 49c0 36 27 56 56 56c30 0 59 -23 59 -82c0 -38 -12 -104 -92 -119l-3 14c45 14 59 52 58 82z" />
    <glyph glyph-name="quotedblright" unicode="&#x201d;" horiz-adv-x="333" 
d="M154 599c-40 -17 -78 8 -78 50c0 36 27 56 55 56c31 0 60 -23 60 -82c0 -38 -12 -104 -92 -119l-4 14c46 14 59 52 59 81zM296 599c-40 -17 -78 8 -78 50c0 36 27 56 56 56c31 0 60 -23 60 -82c0 -38 -13 -104 -93 -119l-3 14c45 14 59 52 58 81z" />
    <glyph glyph-name="quotedblleft" unicode="&#x201c;" horiz-adv-x="379" 
d="M144 603c40 17 77 -7 77 -49c0 -36 -26 -56 -55 -56c-31 0 -60 23 -60 82c0 38 12 104 92 119l4 -14c-46 -14 -59 -52 -58 -82zM301 603c40 17 78 -7 78 -49c0 -36 -27 -56 -56 -56c-30 0 -59 23 -59 82c0 38 12 104 92 119l3 -14c-45 -14 -59 -52 -58 -82z" />
    <glyph glyph-name="quoteright" unicode="&#x2019;" horiz-adv-x="190" 
d="M154 602c-40 -17 -78 7 -78 49c0 36 27 57 55 57c31 0 60 -24 60 -83c0 -38 -12 -103 -92 -119l-4 14c46 14 59 52 59 82z" />
    <glyph glyph-name="quoteleft" unicode="&#x2018;" horiz-adv-x="222" 
d="M144 603c40 17 77 -7 77 -49c0 -36 -26 -56 -55 -56c-31 0 -60 23 -60 82c0 38 12 104 92 119l4 -14c-46 -14 -59 -52 -58 -82z" />
    <glyph glyph-name="question" unicode="?" horiz-adv-x="421" 
d="M176 528c-46 -14 -70 23 -70 68c0 72 73 109 155 109c111 0 160 -71 160 -144c0 -149 -122 -245 -201 -307v-123h-16v203c18 20 117 105 117 247c0 64 -22 106 -72 107c-16 0 -49 -4 -53 -38c-5 -40 41 -104 -20 -122zM157 52c0 31 23 55 55 55c31 0 55 -24 55 -55
c0 -32 -24 -56 -55 -56c-32 0 -55 24 -55 56z" />
    <glyph glyph-name="bar" unicode="|" horiz-adv-x="180" 
d="M106 -30v759h74v-759h-74z" />
    <glyph glyph-name="slash" unicode="/" horiz-adv-x="327" 
d="M106 0l167 699h53l-167 -699h-53z" />
    <glyph glyph-name="backslash" unicode="\" horiz-adv-x="327" 
d="M326 0h-53l-167 699h53z" />
    <glyph glyph-name="fraction" unicode="&#x2044;" horiz-adv-x="297" 
d="M106 0l156 699h34l-155 -699h-35z" />
    <glyph glyph-name="less" unicode="&#x3c;" horiz-adv-x="382" 
d="M382 244l-5 -1l-271 106v21l270 106l4 -1v-47l-2 -2l-174 -65v-2l174 -65l2 -2z" />
    <glyph glyph-name="greater" unicode="&#x3e;" horiz-adv-x="382" 
d="M106 244l2 48l1 2l175 65v2l-175 65l-1 2v47l4 1l270 -107v-21l-272 -105z" />
    <glyph glyph-name="percent" unicode="%" horiz-adv-x="780" 
d="M106 495v64c0 69 60 147 152 147c91 0 155 -78 155 -147v-64c0 -70 -59 -146 -151 -146c-91 0 -156 76 -156 146zM330 0l168 699h53l-167 -699h-54zM207 623v-192c0 -32 21 -66 54 -66s51 34 51 66v192c0 32 -20 67 -52 67c-33 0 -53 -35 -53 -67zM473 146v63
c0 69 60 147 152 147c91 0 155 -77 155 -147v-63c0 -70 -59 -146 -151 -146c-91 0 -156 75 -156 146zM574 274v-192c0 -33 21 -66 54 -66s51 33 51 66v192c0 31 -20 66 -52 66c-33 0 -53 -35 -53 -66z" />
    <glyph glyph-name="perthousand" unicode="&#x2030;" horiz-adv-x="1119" 
d="M106 495v64c0 69 60 147 152 147c91 0 155 -78 155 -147v-64c0 -70 -59 -146 -151 -146c-91 0 -156 76 -156 146zM330 0l168 699h53l-167 -699h-54zM207 623v-192c0 -32 21 -66 54 -66s51 34 51 66v192c0 32 -20 67 -52 67c-33 0 -53 -35 -53 -67zM473 146v63
c0 69 60 147 152 147c91 0 155 -77 155 -147v-63c0 -70 -59 -146 -151 -146c-91 0 -156 75 -156 146zM823 146v63c0 69 60 147 152 147c91 0 155 -77 155 -147v-63c0 -70 -59 -146 -151 -146c-91 0 -156 75 -156 146zM574 274v-192c0 -33 21 -66 54 -66s51 33 51 66v192
c0 31 -20 66 -52 66c-33 0 -53 -35 -53 -66zM924 274v-192c0 -33 21 -66 54 -66s51 33 51 66v192c0 31 -20 66 -52 66c-33 0 -53 -35 -53 -66z" />
    <glyph glyph-name="guillemotleft" unicode="&#xab;" horiz-adv-x="408" 
d="M106 304v4c14 6 157 75 164 132h12c-8 -57 -40 -99 -90 -132v-1l-1 -2c51 -32 83 -76 91 -133h-12c-7 58 -150 126 -164 132zM231 304v4c15 6 157 75 165 132h12c-9 -57 -41 -99 -90 -132l-1 -1v-2c50 -32 82 -76 91 -133h-12c-8 58 -150 126 -165 132z" />
    <glyph glyph-name="guillemotright" unicode="&#xbb;" horiz-adv-x="408" 
d="M282 304c-14 -6 -156 -74 -164 -132h-12c8 57 41 101 91 133v2l-1 1c-49 33 -82 75 -90 132h12c8 -57 150 -126 164 -132v-4zM408 304c-15 -6 -157 -74 -165 -132h-12c9 57 41 101 92 133l-1 2l-1 1c-49 33 -81 75 -90 132h12c8 -57 150 -126 165 -132v-4z" />
    <glyph glyph-name="asciicircum" unicode="^" horiz-adv-x="304" 
d="M304 590l-3 -9c-73 18 -106 59 -109 64c-3 -5 -24 -37 -82 -63l-4 7c72 39 88 103 90 110h15c1 -8 18 -77 93 -109z" />
    <glyph glyph-name="asterisk" unicode="*" horiz-adv-x="298" 
d="M106 636l27 39l66 -68l-20 92h47l-21 -92l66 68l26 -38l-88 -35l88 -37l-25 -38l-67 68l20 -93h-46l20 93l-66 -68l-26 39l88 36z" />
    <glyph glyph-name="numbersign" unicode="#" horiz-adv-x="382" 
d="M363 267l-3 -34h-47l-20 -233h-35l19 233h-88l-19 -233h-36l20 233h-48l3 34h48l15 179h-47l4 34h46l19 219h35l-18 -219h88l18 219h36l-19 -219h47l-3 -34h-47l-15 -179h47zM192 267h88l16 179h-88z" />
    <glyph glyph-name="bracketleft" unicode="[" horiz-adv-x="259" 
d="M106 -56v811h153v-16h-49v-779h49v-16h-153z" />
    <glyph glyph-name="bracketright" unicode="]" horiz-adv-x="259" 
d="M259 -56h-153v16h49v779h-49v16h153v-811z" />
    <glyph glyph-name="parenleft" unicode="(" horiz-adv-x="315" 
d="M254 -36c-95 0 -148 45 -148 152v459c0 107 53 160 148 160h60v-16h-16c-76 0 -87 -54 -87 -130v-487c0 -75 11 -123 87 -123h16v-15h-60z" />
    <glyph glyph-name="parenright" unicode=")" horiz-adv-x="315" 
d="M166 -36h-60v15h17c75 0 87 48 87 123v487c0 76 -12 130 -87 130h-17v16h60c95 0 148 -53 148 -160v-459c0 -107 -53 -152 -148 -152z" />
    <glyph glyph-name="braceleft" unicode="{" horiz-adv-x="373" 
d="M123 352h-17v11h17c53 0 64 27 64 60v212c0 98 37 130 112 130h73v-16h-5c-57 0 -76 -29 -76 -75v-192c0 -102 -86 -125 -158 -125c72 0 158 -23 158 -125v-193c0 -46 19 -75 76 -75h5v-15h-73c-75 0 -112 32 -112 130v213c0 32 -11 60 -64 60z" />
    <glyph glyph-name="braceright" unicode="}" horiz-adv-x="373" 
d="M345 357c-72 0 -158 23 -158 125v192c0 46 -19 75 -76 75h-5v16h73c75 0 112 -32 112 -130v-212c0 -33 11 -60 64 -60h17v-11h-17c-53 0 -64 -28 -64 -60v-213c0 -98 -37 -130 -112 -130h-73v15h5c57 0 76 29 76 75v193c0 102 86 125 158 125z" />
    <glyph glyph-name="at" unicode="@" horiz-adv-x="627" 
d="M216 113v223c0 65 48 135 126 135c64 0 83 -47 89 -99l66 87h18v-376c0 -91 84 -99 84 3v258c0 130 -104 206 -235 206s-231 -79 -231 -206v-245c0 -133 78 -197 236 -197c105 0 149 28 155 32l8 -15c-6 -4 -58 -35 -165 -35c-164 0 -261 73 -261 214v248
c0 135 116 220 257 220c140 0 263 -82 263 -220v-259c0 -123 -173 -141 -202 -62c-10 -33 -34 -54 -83 -54c-88 0 -125 66 -125 142zM315 376v-300c0 -60 13 -88 45 -88c44 0 60 52 60 75v289c0 44 -17 100 -57 100c-38 0 -48 -47 -48 -76z" />
    <glyph glyph-name="ampersand" unicode="&#x26;" horiz-adv-x="565" 
d="M336 385v-16h-39c-54 0 -87 -32 -87 -92v-172c0 -65 22 -94 83 -94c84 0 114 59 114 125v138c-31 -5 -62 -10 -87 -25c-30 -21 -14 -51 -1 -39c19 18 57 0 61 -30c4 -25 -17 -51 -51 -45c-65 12 -80 148 11 204c34 21 120 26 160 43c34 14 40 36 23 33
c-48 -15 -66 26 -51 54c18 33 68 25 85 -14c13 -28 6 -63 -12 -102c-24 -51 -65 -66 -108 -74v-143c0 -70 -38 -141 -148 -141c-84 0 -183 41 -183 164v41c0 106 59 159 129 177c-63 18 -106 64 -106 142v41c0 85 86 145 184 145c70 0 149 -29 149 -111
c0 -54 -40 -80 -77 -62c-41 20 -22 65 -16 92c13 59 -30 65 -53 65c-65 0 -84 -46 -84 -90v-127c0 -55 11 -87 65 -87h39z" />
    <glyph glyph-name="tilde" unicode="&#x2dc;" horiz-adv-x="281" 
d="M281 671c-5 -49 -28 -61 -47 -61c-29 0 -56 28 -84 28c-19 0 -32 -12 -40 -28l-4 1c5 38 30 59 53 61c28 2 63 -26 84 -26c14 0 26 12 35 27z" />
    <glyph glyph-name="plus" unicode="+" horiz-adv-x="412" 
d="M106 380h127v138h52v-138h127v-49h-127v-137h-52v137h-127v49z" />
    <glyph glyph-name="hyphen" unicode="-" horiz-adv-x="324" 
d="M106 340h218v-56h-218v56z" />
    <glyph glyph-name="endash" unicode="&#x2013;" horiz-adv-x="467" 
d="M76 340h392v-56h-392v56z" />
    <glyph glyph-name="emdash" unicode="&#x2014;" horiz-adv-x="652" 
d="M76 340h577v-56h-577v56z" />
    <glyph glyph-name="underscore" unicode="_" horiz-adv-x="357" 
d="M76 56h282v-57h-282v57z" />
    <glyph glyph-name="equal" unicode="=" horiz-adv-x="410" 
d="M410 454v-43h-304v43h304zM410 336v-43h-304v43h304z" />
    <glyph glyph-name="bullet" unicode="&#x2022;" horiz-adv-x="221" 
d="M163 254c-33 0 -57 29 -57 57c0 36 29 58 57 58c36 0 58 -31 58 -58c0 -36 -31 -57 -58 -57z" />
    <glyph glyph-name="exclamdown" unicode="&#xa1;" horiz-adv-x="219" 
d="M215 446c0 -32 -23 -55 -55 -55s-56 23 -56 55s24 56 56 56s55 -24 55 -56zM169 361c9 -194 33 -296 45 -482c4 -66 -116 -66 -111 0c11 186 35 288 45 482h21z" />
    <glyph glyph-name="dagger" unicode="&#x2020;" horiz-adv-x="500" 
d="M295 -165v382c-7 22 -22 38 -40 51v1v1c18 13 33 30 40 52v196c0 19 -3 41 -17 65c-10 17 -26 52 -26 75c0 25 20 45 49 45c30 0 50 -20 50 -46c0 -22 -13 -57 -25 -76c-13 -22 -15 -43 -15 -63v-22c19 0 43 3 66 17c20 11 55 25 77 25c26 0 45 -20 45 -49
s-19 -49 -45 -49c-22 0 -57 15 -76 25c-24 14 -48 18 -67 17v-162c7 -22 22 -38 41 -50v-2c-19 -12 -34 -28 -41 -50v-383h-16zM227 513c25 -14 50 -17 68 -17v-13c-20 0 -43 -4 -67 -18c-19 -10 -54 -25 -76 -25c-26 0 -46 20 -46 49s20 49 46 49c22 0 57 -14 75 -25z" />
    <glyph glyph-name="daggerdbl" unicode="&#x2021;" horiz-adv-x="500" 
d="M227 496c25 -14 50 -18 68 -18v-12c-20 0 -43 -4 -68 -18c-18 -10 -53 -25 -75 -25c-26 0 -46 20 -46 49s20 49 46 49c22 0 57 -14 75 -25zM228 41c-19 -11 -54 -25 -76 -25c-26 0 -46 19 -46 48c0 30 20 50 45 50c23 0 58 -15 76 -26c25 -14 48 -17 68 -17v128
c-4 31 -21 53 -45 69v2c24 16 41 38 45 69v178c0 19 -3 41 -17 65c-10 17 -26 52 -26 75c0 25 20 44 49 44c30 0 49 -19 49 -45c0 -22 -12 -57 -24 -77c-13 -21 -15 -42 -15 -62v-39c19 0 43 4 66 18c20 11 55 25 77 25c26 0 45 -20 45 -49s-19 -49 -45 -49
c-22 0 -57 15 -76 25c-24 14 -48 18 -67 17v-128c4 -30 21 -51 45 -67v-2c-24 -16 -41 -37 -45 -67v-130c20 0 43 3 68 17c18 11 53 26 76 26c25 0 45 -20 45 -50c0 -29 -20 -48 -46 -48c-22 0 -57 14 -76 25c-24 15 -47 17 -67 17v-43c0 -20 2 -41 15 -62
c12 -20 25 -55 25 -76c0 -27 -20 -46 -49 -46c-30 0 -50 19 -50 45c0 22 16 57 27 75c14 23 16 45 16 64v43c-18 0 -43 -2 -67 -17z" />
    <glyph glyph-name="guilsinglright" unicode="&#x203a;" horiz-adv-x="283" 
d="M282 304c-14 -6 -156 -74 -164 -132h-12c8 57 41 101 91 133v2l-1 1c-49 33 -82 75 -90 132h12c8 -57 150 -126 164 -132v-4z" />
    <glyph glyph-name="guilsinglleft" unicode="&#x2039;" horiz-adv-x="283" 
d="M106 304v4c14 6 157 75 164 132h12c-8 -57 -40 -99 -90 -132v-1l-1 -2c51 -32 83 -76 91 -133h-12c-7 58 -150 126 -164 132z" />
    <glyph glyph-name="circumflex" unicode="&#x2c6;" horiz-adv-x="192" 
d="M29 569l-3 1c63 56 81 112 83 119h2c3 -7 21 -63 83 -119l-2 -1c-51 16 -76 47 -82 54c-6 -8 -30 -38 -81 -54z" />
    <glyph glyph-name="degree" unicode="&#xb0;" horiz-adv-x="219" 
d="M162 586c-30 0 -56 26 -56 56c0 31 26 57 56 57c31 0 57 -26 57 -57c0 -30 -26 -56 -57 -56zM162 675c-18 0 -32 -15 -32 -33s14 -32 32 -32s33 14 33 32s-15 33 -33 33z" />
    <glyph glyph-name="quotesingle" unicode="'" horiz-adv-x="192" 
d="M106 663c0 23 21 37 42 37s43 -14 43 -37c0 -2 -37 -142 -41 -158h-2c-4 16 -42 156 -42 158z" />
    <glyph glyph-name="quotedbl" unicode="&#x22;" horiz-adv-x="294" 
d="M106 663c0 23 21 37 42 37s43 -14 43 -37c0 -2 -37 -142 -41 -158h-2c-4 16 -42 156 -42 158zM208 663c0 23 21 37 42 37s43 -14 43 -37c0 -2 -37 -142 -41 -158h-2c-4 16 -42 156 -42 158z" />
    <glyph glyph-name="quotesinglbase" unicode="&#x201a;" horiz-adv-x="222" 
d="M184 2c-40 -17 -78 7 -78 49c0 36 27 56 56 56c30 0 59 -23 59 -82c0 -38 -12 -104 -92 -119l-3 14c45 14 59 52 58 82z" />
    <glyph glyph-name="quotedblbase" unicode="&#x201e;" horiz-adv-x="364" 
d="M184 2c-40 -17 -78 7 -78 49c0 36 27 57 56 57c30 0 59 -24 59 -83c0 -38 -12 -103 -92 -119l-3 14c45 14 59 52 58 82zM326 2c-40 -17 -77 7 -77 49c0 36 26 57 55 57c31 0 60 -24 60 -83c0 -38 -12 -103 -92 -119l-4 14c46 14 59 52 58 82z" />
    <glyph glyph-name="asciitilde" unicode="~" horiz-adv-x="416" 
d="M106 324c13 36 29 84 80 94c59 12 102 -38 146 -37c52 1 62 22 76 40l7 -2c-7 -39 -25 -84 -72 -97c-59 -16 -110 37 -155 37c-41 0 -61 -16 -75 -38z" />
    <glyph glyph-name="acute" unicode="&#xb4;" horiz-adv-x="123" 
d="M29 569h-5c25 42 33 71 39 109h59c-20 -46 -55 -83 -93 -109z" />
    <glyph glyph-name="grave" unicode="`" horiz-adv-x="127" 
d="M75 568c-38 26 -73 63 -93 109h59c6 -37 14 -66 39 -109h-5z" />
    <glyph glyph-name="caron" unicode="&#x2c7;" horiz-adv-x="196" 
d="M31 688c50 -16 75 -46 81 -55c6 9 31 39 81 55l3 -1c-62 -56 -80 -113 -83 -119h-2c-3 6 -21 63 -83 119z" />
    <glyph glyph-name="breve" unicode="&#x2d8;" horiz-adv-x="175" 
d="M169 684h7c-6 -41 -36 -76 -73 -76s-69 35 -73 76h6c7 -39 54 -43 67 -43c12 0 59 3 66 43z" />
    <glyph glyph-name="hungarumlaut" unicode="&#x2dd;" horiz-adv-x="203" 
d="M29 569h-5c25 42 33 71 39 109h59c-20 -46 -55 -83 -93 -109zM107 569h-5c25 42 33 71 39 109h59c-20 -46 -55 -83 -93 -109z" />
    <glyph glyph-name="dotaccent" unicode="&#x2d9;" horiz-adv-x="87" 
d="M18 639c0 20 13 34 34 34c22 0 35 -14 35 -34c0 -22 -13 -36 -35 -36c-21 0 -34 14 -34 36z" />
    <glyph glyph-name="ogonek" unicode="&#x2db;" horiz-adv-x="142" 
d="M128 -70l3 -1c-28 -66 -96 -53 -113 -29c-18 28 -6 66 61 100h8c-48 -27 -49 -61 -38 -81c14 -25 58 -31 79 11z" />
    <glyph glyph-name="cedilla" unicode="&#xb8;" horiz-adv-x="164" 
d="M24 -98l8 9c19 -26 76 -40 87 -5c5 19 0 54 -42 51h-14l24 47h13l-13 -32c36 7 83 -16 83 -53c0 -60 -113 -73 -146 -17z" />
    <glyph glyph-name="B" unicode="B" horiz-adv-x="415" 
d="M24 0v15h45v668h-45v16h212c89 0 147 -76 147 -156v-33c0 -83 -63 -145 -119 -150c69 0 128 -73 128 -156v-30c0 -112 -65 -174 -152 -174h-216zM168 368h52c38 0 59 48 59 106v87c0 64 -9 122 -61 122h-50v-315zM288 142v97c0 70 -25 113 -64 113h-56v-337h63
c42 0 57 54 57 127z" />
    <glyph glyph-name="C" unicode="C" horiz-adv-x="375" 
d="M106 190v325c0 102 78 190 181 190c31 0 59 -8 78 -26c10 2 12 9 12 20h16v-159h-16v61c0 46 -27 88 -88 88s-79 -43 -79 -113v-455c0 -91 30 -111 73 -111c44 0 94 20 94 92v77h16v-179h-16c0 11 -2 18 -14 21c-18 -17 -44 -27 -78 -27c-111 0 -179 98 -179 196z" />
    <glyph glyph-name="A" unicode="A" horiz-adv-x="469" 
d="M38 16h45l139 683l6 -4l1 4h16l175 -683h49v-16h-198v16h41l-49 197h-122l-40 -197h42v-16h-105v16zM145 229h114l-63 252z" />
    <glyph glyph-name="plusminus" unicode="&#xb1;" horiz-adv-x="413" 
d="M106 380h128v138h51v-138h127v-49h-127v-137h-51v137h-128v49zM106 160h306v-49h-306v49z" />
    <glyph glyph-name="dotlessi" unicode="&#x131;" horiz-adv-x="195" 
d="M28 0v16h36v463h-36v16h135v-479h36v-16h-171z" />
    <glyph glyph-name="periodcentered" unicode="&#xb7;" horiz-adv-x="191" 
d="M106 313c0 25 18 42 42 42s43 -17 43 -42c0 -24 -19 -42 -43 -42s-42 18 -42 42z" />
    <glyph glyph-name="macron" unicode="&#xaf;" horiz-adv-x="291" 
d="M290 654v-26h-184v26h184z" />
    <glyph glyph-name="E" unicode="E" horiz-adv-x="360" 
d="M24 0v16h45v667h-45v16h300v-139h-17c0 95 -12 123 -70 123h-64v-317h43c59 0 61 15 61 89h17v-195h-17c0 75 -2 90 -61 90h-43v-334h73c58 0 74 26 74 143h17v-159h-313z" />
    <glyph glyph-name="F" unicode="F" horiz-adv-x="342" 
d="M24 0v16h44v668h-44v15h295v-139h-16c0 97 -16 124 -77 124h-54v-317h35c52 0 65 10 65 92h16v-201h-16c0 76 -13 93 -65 93h-35v-335h45v-16h-193z" />
    <glyph glyph-name="G" unicode="G" horiz-adv-x="415" 
d="M106 524c0 88 75 181 181 181c33 0 60 -9 78 -26c10 3 11 9 11 20h16v-159h-16v59c0 54 -30 90 -89 90c-52 0 -77 -35 -77 -98v-479c0 -66 24 -102 69 -102c34 0 49 19 49 49v198h-32v16h160v-16h-32v-257h-16c0 26 -5 34 -14 34c-21 0 -53 -40 -117 -40
c-79 0 -171 75 -171 197v333z" />
    <glyph glyph-name="questiondown" unicode="&#xbf;" horiz-adv-x="421" 
d="M371 446c0 -32 -24 -55 -55 -55c-32 0 -56 23 -56 55s24 56 56 56c31 0 55 -24 55 -56zM351 9c46 13 70 -25 70 -69c0 -72 -73 -109 -155 -109c-111 0 -160 72 -160 145c0 156 117 245 203 306v85h16v-164c-26 -27 -119 -105 -119 -246c0 -65 19 -111 67 -113
c21 0 54 8 58 42c5 39 -41 105 20 123z" />
    <glyph glyph-name="paragraph" unicode="&#xb6;" horiz-adv-x="499" 
d="M263 -106c-66 0 -113 44 -116 108c-3 52 49 77 85 56c41 -24 5 -76 4 -109c-1 -22 12 -36 33 -38c5 -1 11 -1 17 -1c23 9 21 26 21 72v420h-52c-90 0 -149 59 -149 149c0 89 59 148 149 148h244v-16h-50v-612c0 -147 -132 -177 -186 -177zM321 -18c0 -33 0 -53 -10 -65
c25 11 49 40 49 107v659h-39v-701z" />
    <glyph glyph-name="logicalnot" unicode="&#xac;" horiz-adv-x="535" 
d="M535 222h-57v108h-372v49h429v-157z" />
    <glyph glyph-name="copyright" unicode="&#xa9;" horiz-adv-x="760" 
d="M106 344c0 213 131 355 326 355c196 0 328 -142 328 -355s-132 -355 -328 -355c-195 0 -326 142 -326 355zM168 344c0 -200 99 -339 264 -339c167 0 266 139 266 339s-99 339 -266 339c-165 0 -264 -139 -264 -339zM285 468c0 51 58 131 160 131c85 0 131 -58 131 -115
c0 -42 -26 -61 -53 -61c-36 0 -72 29 -46 87c19 45 -2 73 -35 73s-57 -29 -57 -68v-333c0 -50 25 -73 60 -73c68 0 120 66 120 126v44h16v-45c0 -61 -45 -141 -139 -141c-82 0 -157 62 -157 146v229z" />
    <glyph glyph-name="registered" unicode="&#xae;" horiz-adv-x="363" 
d="M106 582c0 68 47 123 131 123c85 0 126 -55 126 -123c0 -67 -41 -123 -126 -123c-84 0 -131 56 -131 123zM133 582c0 -61 26 -112 104 -112s100 51 100 112s-22 112 -100 112s-104 -51 -104 -112zM255 615v12c0 8 -1 27 -16 27h-17v-64h18c12 0 15 12 15 25zM178 502v10
h14v142h-14v9h65c29 0 42 -22 42 -37v-8c0 -15 -14 -37 -41 -37h-1c2 0 26 -1 31 -21l14 -51v3h14v-10h-42l-17 60c-3 15 -5 19 -15 19h-6v-69h12v-10h-56z" />
    <glyph glyph-name="Euro" unicode="&#x20ac;" horiz-adv-x="437" 
d="M149 190v143h-43v17h43v41h-43v17h43v107c0 102 78 190 181 190c31 0 59 -8 78 -26c10 2 12 9 12 20h16v-159h-16v61c0 46 -27 88 -88 88s-79 -43 -79 -113v-168h59v-17h-59v-41h59v-17h-59v-212c0 -91 30 -111 73 -111c44 0 94 20 94 92v77h16v-179h-16
c0 11 -2 18 -14 21c-18 -17 -44 -27 -78 -27c-111 0 -179 98 -179 196z" />
    <glyph glyph-name="trademark" unicode="&#x2122;" horiz-adv-x="468" 
d="M138 496v9h16v185h-14c-15 0 -22 -7 -22 -35h-12v45h134v-45h-12c0 28 -7 35 -22 35h-14v-185h17v-9h-71zM266 495v10h17v185h-17v9h67l37 -118l28 118h70v-9h-17v-185h17v-10h-71v10h16v184l-45 -194h-9l-59 186v-176h17v-10h-51z" />
    <glyph glyph-name="cent" unicode="&#xa2;" horiz-adv-x="402" 
d="M106 369c0 47 48 118 134 130v38h16v-37c3 0 6 1 9 1c85 0 131 -58 131 -116c0 -42 -26 -60 -52 -60c-36 0 -72 28 -46 86c18 46 -2 74 -35 73c-3 1 -5 0 -7 0v-473h10c68 0 119 65 119 125v45h16v-46c0 -60 -45 -140 -139 -141c-2 0 -4 1 -6 1v-29h-16v30
c-73 10 -134 68 -134 144v229zM206 84c0 -37 13 -59 34 -68v463c-21 -9 -34 -33 -34 -63v-332z" />
    <glyph glyph-name="mu" unicode="&#xb5;" 
d="M56 -169v263c-1 2 -1 5 -1 7v378h-39v16h140v-420c0 -34 13 -53 32 -53c41 0 74 60 74 99v358h-39v16h136v-479h39v-16h-136v67c-19 -45 -55 -70 -96 -70c-3 0 -6 0 -10 1v-167h-100z" />
    <glyph glyph-name="divide" unicode="&#xf7;" horiz-adv-x="463" 
d="M231 494c0 31 23 55 55 55c31 0 55 -24 55 -55c0 -32 -24 -56 -55 -56c-32 0 -55 24 -55 56zM463 349h-357v49h357v-49zM231 254c0 31 23 55 55 55c31 0 55 -24 55 -55c0 -32 -24 -56 -55 -56c-32 0 -55 24 -55 56z" />
    <glyph glyph-name="currency" unicode="&#xa4;" horiz-adv-x="441" 
d="M110 341c0 40 16 78 42 107l-42 42l13 15l43 -43c29 27 68 43 109 43s79 -16 108 -42l43 42l14 -14l-42 -43c26 -29 42 -67 42 -107c0 -42 -16 -81 -42 -110l42 -42l-14 -13l-43 41c-29 -26 -67 -42 -108 -42s-79 16 -109 42l-42 -41l-14 14l42 42c-26 29 -42 67 -42 109
zM134 341c0 -83 60 -142 141 -142s141 59 141 142c0 80 -60 140 -141 140s-141 -60 -141 -140z" />
    <glyph glyph-name="sterling" unicode="&#xa3;" horiz-adv-x="437" 
d="M167 582c0 64 44 122 138 122c89 0 124 -53 124 -110c0 -59 -43 -69 -68 -57c-32 14 -31 53 -19 83c12 38 6 70 -30 70s-46 -33 -46 -61v-242h117v-13h-117v-66c0 -99 -23 -163 -61 -213c6 3 12 5 18 6c74 14 72 -50 146 -14l21 9l21 -71l-13 -8c-81 -53 -123 13 -183 13
c-35 0 -65 -15 -95 -29l-14 27c58 67 61 114 61 250v304zM112 374v13h55v-13h-55z" />
    <glyph glyph-name="yen" unicode="&#xa5;" horiz-adv-x="456" 
d="M166 0v16h47v203h-58v20h58v48h-58v19h58v7l-128 373h-47v13h199v-13h-43l112 -332h2l82 332h-43v13h109v-13h-48l-91 -372v-8h62v-19h-62v-48h62v-20h-62v-203h43v-16h-194z" />
    <glyph glyph-name="multiply" unicode="&#xd7;" horiz-adv-x="389" 
d="M106 233l109 108l-109 109l33 33l108 -109l109 109l33 -33l-109 -109l109 -108l-33 -33l-109 108l-108 -108z" />
    <glyph glyph-name="brokenbar" unicode="&#xa6;" horiz-adv-x="163" 
d="M106 729h57v-321h-57v321zM163 -30h-57v323h57v-323z" />
    <glyph glyph-name="twosuperior" unicode="&#xb2;" horiz-adv-x="251" 
d="M138 625c-19 -6 -30 10 -30 29c0 27 25 47 65 47c85 0 83 -89 44 -136c-28 -36 -98 -72 -105 -159v1c6 18 18 45 46 45c22 0 35 -17 62 -17c28 0 25 16 26 24h5c0 -7 7 -49 -28 -61c-31 -11 -53 17 -80 17c-20 0 -30 -14 -33 -17h-2c0 106 50 149 71 180
c33 49 29 116 -9 116c-8 0 -29 -2 -20 -33c3 -13 6 -31 -12 -36z" />
    <glyph glyph-name="threesuperior" unicode="&#xb3;" horiz-adv-x="254" 
d="M153 556h26c19 0 28 16 28 43v58c0 14 -4 36 -34 37c-15 0 -32 -4 -27 -28c2 -14 13 -35 -10 -42c-19 -5 -30 10 -30 29c0 27 25 48 63 48c43 0 81 -28 81 -70v-22c0 -29 -19 -49 -47 -56c29 -6 50 -24 50 -53v-35c0 -42 -40 -70 -80 -70c-31 0 -62 17 -62 49
c0 24 16 32 31 27c20 -7 13 -27 8 -45c-2 -13 6 -24 24 -24c19 0 37 7 37 37v69c0 24 -13 42 -32 42h-26v6z" />
    <glyph glyph-name="onesuperior" unicode="&#xb9;" horiz-adv-x="202" 
d="M112 405h24v270c-11 -5 -26 -9 -27 -9l-3 6c25 8 37 15 53 27h18v-294h25v-7h-90v7z" />
    <glyph glyph-name="ordfeminine" unicode="&#xaa;" horiz-adv-x="317" 
d="M225 592v62c0 25 -13 39 -33 39c-29 -1 -25 -29 -22 -43c7 -19 8 -53 -25 -53c-28 0 -33 23 -33 38c0 36 31 67 84 67c62 0 89 -41 89 -80v-183c0 -17 5 -24 11 -24c7 0 11 11 11 21h10c0 -24 -17 -39 -44 -39c-25 0 -48 13 -48 33c-9 -21 -31 -32 -55 -32
c-23 0 -64 16 -64 64v34c0 70 94 71 119 96zM225 581c-15 -13 -61 -18 -61 -63v-70c0 -26 12 -35 23 -35c16 0 38 21 38 43v125z" />
    <glyph glyph-name="ordmasculine" unicode="&#xba;" horiz-adv-x="290" 
d="M106 485v128c0 41 35 88 91 88c55 0 93 -46 93 -88v-128c0 -42 -35 -88 -90 -88s-94 46 -94 88zM166 652v-205c0 -20 13 -40 33 -40c19 0 31 20 31 40v205c0 18 -12 39 -32 39s-32 -21 -32 -39z" />
    <glyph glyph-name="germandbls" unicode="&#xdf;" horiz-adv-x="472" 
d="M24 0v16h42v337h-42v16h42v185c0 97 63 145 155 145c84 0 157 -41 157 -110c0 -71 -66 -99 -116 -175c-52 -80 74 -131 166 -258c60 -82 -27 -160 -112 -162c-24 -1 -55 4 -80 22c-10 -1 -16 -5 -16 -16h-16v128h16v-54c0 -33 46 -70 90 -67c37 3 62 31 39 92
c-40 111 -169 185 -109 322c22 41 55 106 62 162c5 52 -13 100 -78 100c-46 0 -62 -23 -62 -77v-606h-138z" />
    <glyph glyph-name="uni20A6" unicode="&#x20a6;" horiz-adv-x="441" 
d="M34 16h45v375h-55v20h55v49h-55v18h55v205h-45v16h149l89 -221h97v205h-45v16h108v-16h-45v-205h53v-18h-53v-49h53v-20h-53v-391h-24l-162 391h-104v-375h45v-16h-108v16zM97 641v-163h69l-67 163h-2zM97 411h96l-20 49h-76v-49zM299 411h70v49h-90zM367 241h2v150h-62z
" />
    <glyph glyph-name="peseta" unicode="&#x20a7;" horiz-adv-x="500" 
d="M185 683v-164h121v53c0 65 -16 111 -59 111h-62zM306 463v37h-121v-153h65c50 0 56 68 56 116zM36 0v16h45v484h-53v19h53v164h-45v16h221c96 0 153 -73 153 -162v-18h51v-19h-51v-5c0 -100 -65 -164 -152 -164h-73v-315h45v-16h-194z" />
    <glyph glyph-name="uni20A9" unicode="&#x20a9;" horiz-adv-x="637" 
d="M265 0h-16l-75 314h-89v20h84l-12 48h-72v20h68l-68 281h-47v16h196v-16h-43l65 -281h65l17 94l-43 187h-48v16h190v-16h-42l66 -281h63l49 281h-45v16h109v-16h-47l-49 -281h65v-20h-69l-8 -48h77v-20h-81l-55 -314h-17l-73 314h-56zM340 402h20l-11 47zM272 334h36
l9 48h-57zM327 334h49l-12 48h-28zM476 334h36l8 48h-55zM276 314l16 -69l13 69h-29zM481 314l16 -66l11 66h-27z" />
    <glyph glyph-name="franc" unicode="&#x20a3;" horiz-adv-x="345" 
d="M29 0v16h44v131h-45v20h45v517h-44v15h294v-139h-16c0 97 -16 124 -77 124h-54v-317h35c52 0 65 10 65 92h16v-201h-16c0 76 -13 93 -65 93h-35v-184h44v-20h-44v-131h45v-16h-192z" />
    <glyph glyph-name="minus" unicode="&#x2212;" horiz-adv-x="412" 
d="M106 400h305v-49h-305v49z" />
    <glyph glyph-name="V" unicode="V" horiz-adv-x="462" 
d="M269 0l-2 1v-1h-21l-161 683h-47v16h193v-16h-40l107 -458l97 458h-42v16h109v-16h-49z" />
    <glyph glyph-name="P" unicode="P" horiz-adv-x="439" 
d="M294 463v109c0 65 -16 111 -59 111h-62v-336h65c50 0 56 68 56 116zM24 0v16h45v667h-45v16h222c95 0 152 -73 152 -162v-42c0 -100 -65 -164 -152 -164h-73v-315h45v-16h-194z" />
    <glyph glyph-name="b" unicode="b" horiz-adv-x="381" 
d="M16 0v16h40v667h-40v16h136v-255c12 33 37 54 74 54c65 0 126 -62 126 -143v-224c0 -99 -79 -136 -127 -137c-32 0 -60 19 -73 55v-49h-136zM152 392v-288c0 -50 34 -88 60 -88c19 0 41 20 41 61v341c0 41 -22 59 -41 59c-25 0 -60 -38 -60 -85z" />
    <glyph glyph-name="g" unicode="g" horiz-adv-x="383" 
d="M12 289v77c0 68 56 134 141 134c30 0 58 -8 82 -21c1 10 3 19 9 29c13 24 39 40 63 40c15 0 30 -6 42 -18c30 -31 6 -73 -24 -74c-10 -1 -20 2 -30 13c-11 13 -25 39 -40 19c-4 -7 -5 -13 -4 -20c31 -22 52 -57 52 -98v-84c0 -101 -77 -140 -139 -140c-24 0 -50 5 -75 17
c-50 -35 -57 -80 27 -80h132c61 0 95 -51 95 -106c0 -68 -56 -150 -195 -150c-106 0 -152 50 -152 92c0 30 23 58 63 70c-83 27 -71 139 15 182c-35 22 -62 60 -62 118zM113 438v-231c0 -27 16 -45 46 -45c27 0 43 11 43 45v230c0 34 -17 47 -45 47c-27 0 -44 -14 -44 -46z
M51 -74c0 -38 34 -79 114 -79s116 42 116 80c0 29 -19 56 -58 56h-122c-31 0 -50 -27 -50 -57z" />
    <glyph glyph-name="y" unicode="y" horiz-adv-x="369" 
d="M183 -118c-12 -50 -40 -69 -65 -69c-24 0 -45 17 -45 49c0 26 13 48 69 57c14 4 35 10 43 41l9 41l-130 478h-42v16h181v-16h-36l77 -272l66 272h-36v16h95v-16h-40z" />
    <glyph glyph-name="ring" unicode="&#x2da;" horiz-adv-x="119" 
d="M22 630c0 28 20 48 49 48c28 0 48 -20 48 -48c0 -29 -20 -49 -48 -49c-29 0 -49 20 -49 49zM42 630c0 -17 12 -29 29 -29s29 12 29 29s-12 29 -29 29s-29 -12 -29 -29z" />
    <glyph glyph-name="dieresis" unicode="&#xa8;" horiz-adv-x="158" 
d="M-26 611c0 20 15 34 35 34c21 0 37 -14 37 -34c0 -22 -16 -36 -37 -36c-20 0 -35 14 -35 36zM77 611c0 20 16 34 36 34c21 0 36 -14 36 -34c0 -22 -15 -36 -36 -36c-20 0 -36 14 -36 36z" />
    <glyph glyph-name="eth" unicode="&#xf0;" horiz-adv-x="342" 
d="M76 123v248c0 58 60 129 139 129c18 0 35 -4 50 -10c-1 31 -4 64 -12 94l-55 -19l-6 16l56 20c-13 36 -34 69 -71 92l22 8c40 -18 72 -47 97 -83l62 22l6 -17l-58 -20c38 -65 57 -150 60 -244v-8v-228c0 -58 -56 -128 -141 -128c-79 0 -149 60 -149 128zM175 435v-376
c0 -22 16 -48 47 -48s45 25 45 47v384l-1 1v1v6c-4 19 -19 33 -42 33c-34 1 -49 -28 -49 -48z" />
    <glyph glyph-name="R" unicode="R" horiz-adv-x="469" 
d="M297 467v104c0 36 -6 112 -59 112h-65v-326h67c42 0 57 51 57 110zM24 0v16h45v667h-45v16h227c106 0 149 -98 149 -161v-38c0 -64 -47 -159 -146 -159h-1c8 0 86 -5 105 -91l57 -234h47v-16h-150l-60 262c-13 61 -21 79 -54 79h-25v-325h45v-16h-194z" />
    <glyph glyph-name="a" unicode="a" horiz-adv-x="398" 
d="M85 389c0 61 52 112 140 112c103 0 150 -68 150 -133v-305c0 -28 7 -40 17 -40c12 0 19 17 19 34h16c0 -40 -28 -64 -73 -65c-39 0 -75 20 -79 55c-16 -34 -53 -52 -92 -52s-107 26 -107 107v56c0 116 157 118 198 160v103c0 42 -22 65 -55 65c-48 0 -42 -48 -36 -71
c12 -32 13 -88 -43 -88c-45 0 -55 37 -55 62zM274 300c-24 -22 -101 -31 -101 -106v-116c0 -44 19 -59 38 -59c27 0 63 35 63 72v209z" />
    <glyph glyph-name="d" unicode="d" horiz-adv-x="383" 
d="M276 391c0 47 -33 86 -59 86c-19 0 -42 -18 -42 -59v-341c0 -41 23 -61 42 -61c26 0 59 40 59 89v286zM411 0h-135v49c-13 -36 -41 -54 -73 -54c-48 0 -127 37 -127 136v224c0 81 61 143 126 143c37 0 63 -21 74 -54v239h-39v16h135v-683h39v-16z" />
    <glyph glyph-name="AE" unicode="&#xc6;" horiz-adv-x="589" 
d="M38 16h48l218 667h-43v16h299v-139h-16c0 95 -13 123 -71 123h-64v-317h44c58 0 60 15 60 89h17v-195h-17c0 75 -2 90 -60 90h-44v-334h73c58 0 75 26 75 143h16v-159h-312v16h44v198h-135l-65 -198h40v-16h-107v16zM175 230h130v400z" />
    <glyph glyph-name="onequarter" unicode="&#xbc;" horiz-adv-x="424" 
d="M172 0l156 699h34l-155 -699h-35zM112 405h24v270c-11 -5 -26 -9 -27 -9l-3 6c25 8 37 15 53 27h18v-294h25v-7h-90v7zM358 223h-1l-62 -160v-1h63v161zM339 7h19v48h-74v5l98 241h18v-239h24v-7h-24v-48h19v-7h-80v7z" />
    <glyph glyph-name="Eth" unicode="&#xd0;" horiz-adv-x="440" 
d="M24 16h45v326h-38v18h38v323h-45v16h216c73 0 158 -78 158 -165v-359c0 -86 -81 -175 -153 -175h-221v16zM174 683v-323h61v-18h-61v-326h63c39 0 56 40 56 106v457c0 59 -17 104 -64 104h-55z" />
    <glyph glyph-name="Dcroat" unicode="&#x110;" horiz-adv-x="440" 
d="M24 16h45v326h-38v18h38v323h-45v16h216c73 0 158 -78 158 -165v-359c0 -86 -81 -175 -153 -175h-221v16zM174 683v-323h61v-18h-61v-326h63c39 0 56 40 56 106v457c0 59 -17 104 -64 104h-55z" />
    <glyph glyph-name="Hbar" unicode="&#x126;" horiz-adv-x="466" 
d="M466 513v-19h-45v-478h45v-16h-194v16h45v325h-144v-325h45v-16h-194v16h45v478h-45v19h45v170h-45v16h194v-16h-45v-170h144v170h-45v16h194v-16h-45v-170h45zM173 357h144v137h-144v-137z" />
    <glyph glyph-name="Lcaron" unicode="&#x13d;" horiz-adv-x="344" 
d="M305 635c-25 -10 -49 5 -49 32c0 23 17 36 35 36c21 0 38 -15 38 -54c0 -23 -7 -67 -58 -80l-3 9c30 12 38 39 37 57zM24 0v16h45v667h-45v16h194v-16h-45v-667h71c60 0 73 25 73 143h16v-159h-309z" />
    <glyph glyph-name="Ldot" unicode="&#x13f;" horiz-adv-x="359" 
d="M24 0v16h45v667h-45v16h194v-16h-45v-667h71c60 0 73 25 73 143h16v-159h-309zM268 344c0 24 18 42 42 42s43 -18 43 -42s-19 -43 -43 -43s-42 19 -42 43z" />
    <glyph glyph-name="Lslash" unicode="&#x141;" horiz-adv-x="348" 
d="M34 0v16h45v297l-44 -25l-9 17l53 31v347h-45v16h193v-16h-45v-288l67 39l8 -18l-75 -43v-357h71c60 0 73 25 73 143h16v-159h-308z" />
    <glyph glyph-name="Eng" unicode="&#x14a;" horiz-adv-x="422" 
d="M24 16h45v667h-45v16h149l184 -458h2v442h-45v16h108v-16h-45v-733c0 -55 -1 -123 -81 -123c-46 0 -96 26 -102 90c-6 50 41 79 78 51c18 -13 27 -36 9 -70c-12 -44 -1 -55 19 -55c45 0 53 48 53 111v46l-264 641h-2v-625h45v-16h-108v16z" />
    <glyph glyph-name="OE" unicode="&#x152;" horiz-adv-x="611" 
d="M106 193v325c0 178 178 182 181 181h329v-139h-17c0 95 -12 123 -71 123h-63v-317h43c59 0 61 15 61 89h16v-195h-16c0 75 -2 90 -61 90h-43v-334h73c58 0 74 26 74 143h16v-159h-339c-19 0 -183 12 -183 193zM211 588v-476c0 -94 68 -96 74 -96h76v667h-75
c-15 0 -75 -6 -75 -95z" />
    <glyph glyph-name="Tbar" unicode="&#x166;" horiz-adv-x="405" 
d="M125 0v16h45v358h-75v19h75v290h-54c-41 0 -62 -25 -62 -122h-16v138h368v-138h-16c0 97 -21 122 -62 122h-54v-290h75v-19h-75v-358h45v-16h-194z" />
    <glyph glyph-name="dcaron" unicode="&#x10f;" horiz-adv-x="394" 
d="M399 636c-25 -10 -49 5 -49 31c0 23 17 36 35 36c20 0 37 -15 37 -53c0 -24 -7 -67 -57 -79l-3 9c30 11 38 38 37 56zM214 391c0 47 -33 86 -59 86c-19 0 -42 -18 -42 -59v-341c0 -41 23 -61 42 -61c26 0 59 40 59 89v286zM349 0h-135v49c-13 -36 -41 -54 -73 -54
c-48 0 -127 37 -127 136v224c0 81 61 143 126 143c37 0 63 -21 74 -54v239h-39v16h135v-683h39v-16z" />
    <glyph glyph-name="dcroat" unicode="&#x111;" horiz-adv-x="394" 
d="M276 391c0 47 -33 86 -59 86c-19 0 -42 -18 -42 -59v-341c0 -41 23 -61 42 -61c26 0 59 40 59 89v286zM411 0h-135v49c-13 -36 -41 -54 -73 -54c-48 0 -127 37 -127 136v224c0 81 61 143 126 143c37 0 63 -21 74 -54v138h-73v15h73v86h-39v16h135v-102h50v-15h-50v-566
h39v-16z" />
    <glyph glyph-name="hbar" unicode="&#x127;" horiz-adv-x="397" 
d="M26 0v16h39v573h-35v19h35v81h-39v16h135v-97h55v-19h-55v-159c19 45 57 68 95 68c45 0 106 -35 106 -105v-377h39v-16h-172v16h34v410c0 22 -7 46 -29 46c-32 0 -73 -48 -73 -102v-354h35v-16h-170z" />
    <glyph glyph-name="lcaron" unicode="&#x13e;" horiz-adv-x="263" 
d="M242 636c-25 -10 -48 5 -48 31c0 23 16 36 34 36c20 0 38 -15 38 -53c0 -24 -8 -67 -58 -79l-3 9c30 11 38 38 37 56zM24 0v16h39v673h-39v16h135v-689h39v-16h-174z" />
    <glyph glyph-name="ldot" unicode="&#x140;" horiz-adv-x="288" 
d="M206 395c0 24 18 42 42 42c25 0 43 -18 43 -42c0 -25 -18 -43 -43 -43c-24 0 -42 18 -42 43zM24 0v16h39v673h-39v16h135v-689h39v-16h-174z" />
    <glyph glyph-name="lslash" unicode="&#x142;" horiz-adv-x="228" 
d="M38 0v16h39v338l-44 -25l-9 16l53 31v313h-39v16h135v-274l50 29l8 -17l-58 -33v-394h39v-16h-174z" />
    <glyph glyph-name="oe" unicode="&#x153;" horiz-adv-x="572" 
d="M76 141v213c0 69 59 147 152 147c41 0 77 -16 103 -40c26 23 61 40 103 40c88 0 144 -73 144 -143v-114h-195v-161c0 -37 17 -72 63 -72c65 0 115 63 115 125v45h18v-46c0 -60 -46 -140 -141 -140c-42 0 -77 15 -104 39c-26 -24 -60 -39 -102 -39c-91 0 -156 75 -156 146
zM176 418v-342c0 -32 22 -65 55 -65c32 0 51 33 51 65v342c0 32 -20 67 -52 67c-33 0 -54 -35 -54 -67zM383 422v-162h95v162c0 24 -9 63 -44 63c-36 0 -51 -39 -51 -63z" />
    <glyph glyph-name="tbar" unicode="&#x167;" horiz-adv-x="258" 
d="M16 479v16h56v113l97 33v-146h87v-16h-87v-33h88v-16h-88v-375c0 -27 9 -37 25 -37c15 0 33 13 33 48h17c0 -49 -33 -72 -72 -72c-38 0 -100 21 -100 91v345h-55v16h55v33h-56z" />
    <glyph glyph-name="tcaron" unicode="&#x165;" horiz-adv-x="258" 
d="M231 635c-25 -10 -48 5 -48 32c0 22 15 35 34 35c20 0 38 -15 38 -53c0 -23 -8 -66 -59 -79l-2 9c29 12 38 38 37 56zM-10 479v16h56v113l98 33v-146h86v-16h-86v-424c0 -27 8 -37 24 -37c15 0 33 13 33 48h17c0 -49 -32 -72 -72 -72c-38 0 -100 21 -100 91v394h-56z" />
    <glyph glyph-name="onehalf" unicode="&#xbd;" horiz-adv-x="438" 
d="M160 0l155 699h35l-156 -699h-34zM114 405h24v270c-11 -5 -26 -9 -27 -9l-3 6c24 8 37 15 53 27h18v-294h25v-7h-90v7zM324 229c-19 -6 -29 11 -29 30c0 26 25 46 65 46c49 0 70 -31 70 -66c0 -25 -10 -52 -27 -71c-28 -34 -98 -70 -104 -155c7 18 18 43 46 43
c10 0 18 -4 26 -7c11 -4 22 -9 37 -9c27 0 24 16 25 23h4c2 -6 8 -48 -27 -60c-18 -7 -33 0 -49 8c-10 4 -20 9 -31 9c-20 0 -31 -15 -33 -18h-2c0 106 50 149 71 181c14 22 22 47 22 69c0 26 -11 46 -33 46c-19 0 -23 -15 -19 -33c4 -13 7 -30 -12 -36z" />
    <glyph glyph-name="O" unicode="O" horiz-adv-x="465" 
d="M106 189v329c0 101 80 187 179 187c98 0 180 -84 180 -187v-329c0 -109 -81 -195 -180 -195c-98 0 -179 85 -179 195zM211 593v-486c0 -72 26 -97 74 -97s75 25 75 97v486c0 66 -29 96 -74 96c-46 0 -75 -31 -75 -96z" />
    <glyph glyph-name="threequarters" unicode="&#xbe;" horiz-adv-x="405" 
d="M123 556h25c20 0 29 16 29 43v58c0 14 -4 37 -34 37c-15 0 -32 -4 -28 -28c3 -14 14 -35 -9 -42c-19 -5 -30 11 -30 29c0 27 25 48 63 48c43 0 81 -28 81 -70v-22c0 -29 -19 -49 -47 -56c29 -6 50 -24 50 -53v-35c0 -42 -41 -70 -80 -70c-31 0 -62 17 -62 49
c0 24 16 32 31 27c20 -7 13 -27 8 -45c-2 -13 6 -24 23 -24c20 0 38 8 38 37v69c0 24 -13 42 -33 42h-25v6zM174 0l155 699h35l-156 -699h-34zM341 223h-2l-62 -160v-1h64v161zM322 7h19v48h-74v4l97 242h18v-239h24l1 -7h-25v-48h19v-7h-79v7z" />
    <glyph glyph-name="Thorn" unicode="&#xde;" horiz-adv-x="435" 
d="M291 300v110c0 65 -16 111 -60 111h-62v-336h65c50 0 57 68 57 115zM24 0v16h42v667h-42v16h145v-162h73c95 0 152 -73 152 -162v-42c0 -100 -64 -164 -152 -164h-73v-153h40v-16h-185z" />
    <glyph glyph-name="thorn" unicode="&#xfe;" horiz-adv-x="385" 
d="M159 96c0 -47 35 -78 60 -78c19 0 42 18 42 59v342c0 41 -24 60 -43 60c-25 0 -59 -31 -59 -80v-303zM24 -153h39v836h-39v16h135v-253c13 36 42 55 75 55c53 0 126 -45 126 -143v-217c0 -80 -61 -144 -126 -144c-38 0 -63 21 -75 54v-204h39v-16h-174v16z" />
    <glyph glyph-name="ae" unicode="&#xe6;" horiz-adv-x="565" 
d="M85 388c1 62 54 113 139 113c47 0 82 -14 107 -35c25 21 57 35 96 35c88 0 145 -73 145 -143v-114h-195v-161c0 -37 16 -72 62 -72c66 0 117 63 117 125v45h16v-46c0 -60 -45 -140 -140 -140c-71 0 -125 45 -146 98l-1 -1c0 -65 -49 -97 -102 -97c-44 0 -107 30 -107 107
v56c0 116 165 121 198 161v102c0 42 -22 65 -54 64c-34 0 -53 -27 -37 -71c24 -54 -7 -87 -43 -87c-42 0 -55 31 -55 61zM377 422v-162h95v162c0 24 -9 63 -44 63c-36 0 -51 -39 -51 -63zM274 300c-26 -23 -101 -31 -101 -106v-117c0 -43 18 -58 38 -58c26 0 63 35 63 72
v209z" />
    <glyph glyph-name="uni0122" unicode="&#x122;" horiz-adv-x="415" 
d="M106 524c0 88 75 181 181 181c33 0 60 -9 78 -26c10 3 11 9 11 20h16v-159h-16v59c0 54 -30 90 -89 90c-52 0 -77 -35 -77 -98v-479c0 -66 24 -102 69 -102c34 0 49 19 49 49v198h-32v16h160v-16h-32v-257h-16c0 26 -5 34 -14 34c-21 0 -53 -40 -117 -40
c-79 0 -171 75 -171 197v333zM283 -107c-25 -11 -49 5 -49 31c0 22 17 36 35 36c20 0 38 -16 38 -53c0 -25 -7 -68 -58 -81l-4 10c31 11 38 38 38 57z" />
    <glyph glyph-name="Hcircumflex" unicode="&#x124;" horiz-adv-x="466" 
d="M164 739l-3 1c62 56 81 112 83 119h2c2 -7 21 -63 83 -119l-3 -1c-50 16 -75 47 -81 54c-6 -8 -31 -38 -81 -54zM24 699h194v-16h-45v-326h144v326h-45v16h194v-16h-45v-667h45v-16h-194v16h45v325h-144v-325h45v-16h-194v16h45v667h-45v16z" />
    <glyph glyph-name="uni0136" unicode="&#x136;" horiz-adv-x="464" 
d="M24 0v16h45v667h-45v16h195v-16h-45v-320l175 320h-42v16h111v-16h-49l-123 -229l163 -438h48v-16h-196v16h40l-127 342v-342h45v-16h-195zM252 -107c-25 -11 -49 5 -49 31c0 23 17 36 35 36c20 0 38 -15 38 -53c0 -24 -7 -68 -58 -80l-2 9c29 11 37 38 36 57z" />
    <glyph glyph-name="uni013B" unicode="&#x13b;" horiz-adv-x="340" 
d="M24 0v16h45v667h-45v16h194v-16h-45v-667h71c60 0 73 25 73 143h16v-159h-309zM187 -107c-25 -11 -49 5 -49 31c0 23 17 36 35 36c20 0 38 -15 38 -53c0 -24 -8 -68 -58 -80l-3 9c30 11 38 38 37 57z" />
    <glyph glyph-name="Oslash" unicode="&#xd8;" horiz-adv-x="465" 
d="M115 7l28 62c-23 33 -37 74 -37 120v329c0 101 80 187 178 187c50 0 96 -22 129 -56l22 48l22 -11l-27 -58c22 -31 35 -69 35 -110v-329c0 -109 -81 -195 -180 -195c-48 0 -92 20 -124 54l-25 -52zM211 593v-378l149 319v59c0 66 -29 96 -74 96c-46 0 -75 -31 -75 -96z
M211 107c0 -72 26 -97 74 -97s75 25 75 97v369l-149 -318v-51z" />
    <glyph glyph-name="Oslashacute" unicode="&#x1fe;" horiz-adv-x="466" 
d="M252 739h-5c24 43 33 72 39 109h59c-20 -46 -55 -83 -93 -109zM115 7l28 62c-23 33 -37 74 -37 120v329c0 101 80 187 178 187c50 0 96 -22 129 -56l22 48l22 -11l-27 -58c22 -31 35 -69 35 -110v-329c0 -109 -81 -195 -180 -195c-48 0 -92 20 -124 54l-25 -52zM211 593
v-378l149 319v59c0 66 -29 96 -74 96c-46 0 -75 -31 -75 -96zM211 107c0 -72 26 -97 74 -97s75 25 75 97v369l-149 -318v-51z" />
    <glyph glyph-name="uni0156" unicode="&#x156;" horiz-adv-x="469" 
d="M297 467v104c0 36 -6 112 -59 112h-65v-326h67c42 0 57 51 57 110zM24 0v16h45v667h-45v16h227c106 0 149 -98 149 -161v-38c0 -64 -47 -159 -146 -159h-1c8 0 86 -5 105 -91l57 -234h47v-16h-150l-60 262c-13 61 -21 79 -54 79h-25v-325h45v-16h-194zM243 -107
c-26 -11 -50 5 -50 31c0 23 17 36 36 36c20 0 38 -15 38 -53c0 -24 -8 -68 -59 -80l-3 9c31 11 39 38 38 57z" />
    <glyph glyph-name="uni0218" unicode="&#x218;" horiz-adv-x="396" 
d="M82 477c-76 149 32 231 118 231c38 0 72 -11 95 -33c12 2 16 10 16 24h16v-154h-16v49c0 68 -44 91 -86 90c-56 0 -102 -51 -53 -150c46 -95 93 -196 152 -315c64 -129 -20 -227 -117 -227h-1c-35 0 -78 12 -108 36c-20 -1 -21 -13 -21 -28h-16v174h16v-70
c0 -59 58 -92 99 -92c73 0 102 78 32 211c-33 65 -75 151 -126 254zM211 -107c-26 -11 -49 5 -49 31c0 23 17 36 35 36c19 0 38 -15 38 -53c0 -24 -8 -68 -59 -80l-2 9c29 11 38 38 37 57z" />
    <glyph glyph-name="uni021A" unicode="&#x21a;" horiz-adv-x="405" 
d="M125 0v16h45v667h-54c-41 0 -62 -25 -62 -122h-16v138h368v-138h-16c0 97 -21 122 -62 122h-54v-667h45v-16h-194zM234 -107c-25 -11 -49 5 -49 31c0 23 17 36 35 36c20 0 38 -15 38 -53c0 -24 -8 -68 -58 -80l-3 9c30 11 38 38 37 57z" />
    <glyph glyph-name="uni0123" unicode="&#x123;" horiz-adv-x="383" 
d="M146 603c26 11 49 -5 49 -32c0 -23 -16 -36 -35 -36s-38 15 -38 53c0 24 8 68 59 80l3 -8c-30 -12 -39 -39 -38 -57zM12 289v77c0 68 56 134 141 134c30 0 58 -8 82 -21c1 10 3 19 9 29c13 24 39 40 63 40c15 0 30 -6 42 -18c30 -31 6 -73 -24 -74c-10 -1 -20 2 -30 13
c-11 13 -25 39 -40 19c-4 -7 -5 -13 -4 -20c31 -22 52 -57 52 -98v-84c0 -101 -77 -140 -139 -140c-24 0 -50 5 -75 17c-50 -35 -57 -80 27 -80h132c58 0 95 -51 95 -106c0 -69 -56 -150 -195 -150c-106 0 -152 50 -152 92c0 30 23 58 63 70c-83 27 -71 139 15 182
c-35 22 -62 60 -62 118zM113 438v-231c0 -27 16 -45 46 -45c27 0 43 11 43 45v230c0 34 -17 47 -45 47c-27 0 -44 -14 -44 -46zM51 -74c0 -38 34 -79 114 -79s116 42 116 80c0 29 -22 56 -58 56h-122c-31 0 -50 -27 -50 -57z" />
    <glyph glyph-name="uni0137" unicode="&#x137;" horiz-adv-x="418" 
d="M29 0v16h39v667h-44v16h185v-16h-44v-382l131 178h-32v16h91v-16h-41l-77 -113l139 -350h43v-16h-181v16h38l-111 278v-278h44v-16h-180zM235 -107c-25 -11 -49 5 -49 31c0 23 16 36 35 36c20 0 38 -15 38 -53c0 -24 -8 -68 -59 -80l-3 9c31 11 39 38 38 57z" />
    <glyph glyph-name="uni013C" unicode="&#x13c;" horiz-adv-x="195" 
d="M24 0v16h39v673h-39v16h135v-689h39v-16h-174zM125 -107c-26 -11 -50 5 -50 31c0 23 17 36 35 36c21 0 39 -15 39 -53c0 -24 -8 -68 -59 -80l-3 9c31 11 39 38 38 57z" />
    <glyph glyph-name="uni0146" unicode="&#x146;" 
d="M16 0v16h39v463h-39v16h137v-66c18 45 54 69 94 69c44 0 112 -27 112 -104v-378h39v-16h-175v16h35v403c0 37 -13 54 -34 54c-36 0 -71 -55 -71 -101v-356h34v-16h-171zM217 -107c-25 -11 -49 5 -49 31c0 23 17 36 35 36c20 0 39 -15 39 -53c0 -24 -7 -68 -59 -80l-2 9
c29 11 37 38 36 57z" />
    <glyph glyph-name="eng" unicode="&#x14b;" horiz-adv-x="388" 
d="M16 0v16h39v463h-39v16h137v-66c18 45 53 69 94 69c44 0 112 -27 112 -104v-444c0 -100 -78 -123 -141 -123c-57 0 -118 23 -118 98c0 54 55 68 84 38c22 -23 11 -51 4 -65c-17 -42 0 -55 23 -55c40 0 47 53 47 84v492c0 37 -13 54 -32 54c-48 0 -73 -69 -73 -101v-356
h34v-16h-171z" />
    <glyph glyph-name="oslash" unicode="&#xf8;" horiz-adv-x="333" 
d="M29 12l27 46c-19 25 -30 54 -30 83v213c0 69 60 147 152 147c44 0 81 -18 108 -44l23 39l20 -12l-26 -46c19 -26 30 -56 30 -84v-213c0 -71 -59 -146 -150 -146c-45 0 -83 17 -110 43l-22 -38zM127 418v-237l105 182v55c0 32 -19 67 -52 67s-53 -35 -53 -67zM127 76
c0 -32 21 -65 55 -65c32 0 50 33 50 65v239l-105 -183v-56z" />
    <glyph glyph-name="oslashacute" unicode="&#x1ff;" horiz-adv-x="382" 
d="M197 535h-5c25 43 33 72 39 109h59c-20 -46 -55 -83 -93 -109zM80 12l27 46c-19 25 -29 54 -29 83v213c0 69 59 147 152 147c43 0 81 -18 108 -44l23 39l20 -12l-27 -46c20 -26 30 -56 30 -84v-213c0 -71 -58 -146 -150 -146c-44 0 -82 17 -110 43l-22 -38zM178 418v-237
l106 182v55c0 32 -20 67 -52 67c-33 0 -54 -35 -54 -67zM178 76c0 -32 22 -65 55 -65c32 0 51 33 51 65v239l-106 -183v-56z" />
    <glyph glyph-name="uni0157" unicode="&#x157;" horiz-adv-x="343" 
d="M16 0v16h39v463h-39v16h135v-62c12 35 36 61 81 61c62 0 108 -51 108 -107c0 -42 -23 -62 -55 -62c-50 0 -58 51 -41 91c5 22 8 59 -26 59c-49 0 -67 -76 -67 -110v-349h39v-16h-174zM115 -107c-26 -11 -50 5 -50 31c0 23 17 36 36 36c20 0 38 -15 38 -53
c0 -24 -8 -68 -59 -80l-3 9c30 11 38 38 38 57z" />
    <glyph glyph-name="uni0219" unicode="&#x219;" horiz-adv-x="327" 
d="M49 138v-57c0 -42 48 -66 86 -66c49 0 80 38 28 128c-20 35 -85 145 -106 182c-67 110 33 176 106 175c25 1 52 -7 73 -23c12 0 22 3 22 18h16v-124h-16v29c0 56 -37 77 -72 77c-41 0 -81 -30 -41 -99c49 -86 101 -176 123 -215c54 -93 -28 -170 -114 -170
c-30 0 -64 9 -88 27c-11 -1 -17 -6 -17 -20h-16v138h16zM160 -107c-25 -11 -49 5 -49 31c0 23 17 36 35 36c20 0 38 -15 38 -53c0 -24 -7 -68 -58 -80l-4 9c31 11 39 38 38 57z" />
    <glyph glyph-name="uni021B" unicode="&#x21b;" horiz-adv-x="258" 
d="M16 479v16h57v113l97 33v-146h86v-16h-86v-424c0 -27 9 -37 25 -37c15 0 33 13 33 48h16c0 -49 -32 -72 -71 -72s-100 21 -100 91v394h-57zM162 -107c-25 -11 -49 5 -49 31c0 23 17 36 35 36c20 0 38 -15 38 -53c0 -24 -7 -68 -58 -80l-3 9c30 11 38 38 37 57z" />
    <glyph glyph-name="florin" unicode="&#x192;" horiz-adv-x="429" 
d="M271 -50c0 -76 -45 -120 -131 -120c-95 0 -124 40 -124 91c0 53 42 70 73 53c25 -13 31 -41 22 -68c-7 -33 -28 -68 26 -60c35 5 36 57 36 82v470h-55v18h55v167c0 76 45 121 131 121c95 0 124 -41 124 -91c0 -53 -41 -70 -72 -53c-25 13 -31 41 -22 67
c6 33 28 69 -27 60c-34 -4 -36 -56 -36 -81v-190h83v-18h-83v-448z" />
    <glyph glyph-name="Agrave" unicode="&#xc0;" horiz-adv-x="469" 
d="M267 739c-38 26 -73 63 -93 109h59c6 -37 14 -66 39 -109h-5zM38 16h45l139 683l6 -4l1 4h16l175 -683h49v-16h-198v16h41l-49 197h-122l-40 -197h42v-16h-105v16zM145 229h114l-63 252z" />
    <glyph glyph-name="Aacute" unicode="&#xc1;" horiz-adv-x="469" 
d="M199 739h-5c25 43 33 72 39 109h59c-20 -46 -55 -83 -93 -109zM38 16h45l139 683l6 -4l1 4h16l175 -683h49v-16h-198v16h41l-49 197h-122l-40 -197h42v-16h-105v16zM145 229h114l-63 252z" />
    <glyph glyph-name="Acircumflex" unicode="&#xc2;" horiz-adv-x="469" 
d="M150 739l-3 1c63 56 81 112 83 119h2c3 -7 21 -63 83 -119l-2 -1c-51 16 -76 47 -82 54c-6 -8 -30 -38 -81 -54zM38 16h45l139 683l6 -4l1 4h16l175 -683h49v-16h-198v16h41l-49 197h-122l-40 -197h42v-16h-105v16zM145 229h114l-63 252z" />
    <glyph glyph-name="Atilde" unicode="&#xc3;" horiz-adv-x="469" 
d="M319 813c-5 -49 -29 -61 -47 -61c-30 0 -56 28 -84 28c-20 0 -32 -13 -40 -29l-4 1c5 38 29 60 53 62c28 2 63 -27 84 -27c14 0 25 13 35 28zM38 16h45l139 683l6 -4l1 4h16l175 -683h49v-16h-198v16h41l-49 197h-122l-40 -197h42v-16h-105v16zM145 229h114l-63 252z" />
    <glyph glyph-name="Adieresis" unicode="&#xc4;" horiz-adv-x="469" 
d="M145 787c0 20 15 35 35 35c21 0 36 -15 36 -35c0 -21 -15 -35 -36 -35c-20 0 -35 14 -35 35zM248 787c0 20 16 35 35 35c22 0 37 -15 37 -35c0 -21 -15 -35 -37 -35c-19 0 -35 14 -35 35zM38 16h45l139 683l6 -4l1 4h16l175 -683h49v-16h-198v16h41l-49 197h-122
l-40 -197h42v-16h-105v16zM145 229h114l-63 252z" />
    <glyph glyph-name="Aring" unicode="&#xc5;" horiz-adv-x="469" 
d="M184 790c0 29 20 49 48 49s49 -20 49 -49c0 -28 -21 -48 -49 -48s-48 20 -48 48zM204 790c0 -16 11 -28 28 -28c18 0 29 12 29 28c0 18 -11 29 -29 29c-17 0 -28 -11 -28 -29zM38 16h45l139 683l6 -4l1 4h16l175 -683h49v-16h-198v16h41l-49 197h-122l-40 -197h42v-16
h-105v16zM145 229h114l-63 252z" />
    <glyph glyph-name="Amacron" unicode="&#x100;" horiz-adv-x="469" 
d="M324 785v-26h-185v26h185zM38 16h45l139 683l6 -4l1 4h16l175 -683h49v-16h-198v16h41l-49 197h-122l-40 -197h42v-16h-105v16zM145 229h114l-63 252z" />
    <glyph glyph-name="Abreve" unicode="&#x102;" horiz-adv-x="469" 
d="M298 827h7c-5 -41 -36 -75 -73 -75s-69 35 -73 75h6c7 -38 54 -43 67 -43c12 0 59 4 66 43zM38 16h45l139 683l6 -4l1 4h16l175 -683h49v-16h-198v16h41l-49 197h-122l-40 -197h42v-16h-105v16zM145 229h114l-63 252z" />
    <glyph glyph-name="Aogonek" unicode="&#x104;" horiz-adv-x="469" 
d="M38 16h45l139 683l6 -4l1 4h16l175 -683h49v-16h-191c-48 -26 -49 -61 -37 -81c14 -24 57 -31 79 11l3 -1c-29 -66 -96 -53 -114 -29c-18 28 -5 66 61 100h1v16h41l-49 197h-122l-40 -197h42v-16h-105v16zM145 229h114l-63 252z" />
    <glyph glyph-name="AEacute" unicode="&#x1fc;" horiz-adv-x="589" 
d="M382 739h-5c25 43 33 72 39 109h59c-20 -46 -55 -83 -93 -109zM38 16h48l218 667h-43v16h299v-139h-16c0 95 -13 123 -71 123h-64v-317h44c58 0 60 15 60 89h17v-195h-17c0 75 -2 90 -60 90h-44v-334h73c58 0 75 26 75 143h16v-159h-312v16h44v198h-135l-65 -198h40v-16
h-107v16zM175 230h130v400z" />
    <glyph glyph-name="Ccedilla" unicode="&#xc7;" horiz-adv-x="376" 
d="M211 -104l7 9c18 -26 76 -40 86 -5c6 19 2 54 -40 51h-15l22 44c-102 7 -165 101 -165 195v325c0 102 78 190 181 190c31 0 59 -8 78 -26c10 2 12 9 12 20h16v-159h-16v61c0 46 -27 88 -88 88s-79 -43 -79 -113v-455c0 -91 30 -111 73 -111c44 0 94 20 94 92v77h16v-179
h-16c0 11 -2 18 -14 21c-18 -17 -44 -27 -78 -27h-1l-11 -28c36 7 84 -15 84 -53c0 -60 -114 -73 -146 -17z" />
    <glyph glyph-name="Cacute" unicode="&#x106;" horiz-adv-x="376" 
d="M242 739h-5c24 43 33 72 39 109h59c-20 -46 -56 -83 -93 -109zM106 190v325c0 102 78 190 181 190c31 0 59 -8 78 -26c10 2 12 9 12 20h16v-159h-16v61c0 46 -27 88 -88 88s-79 -43 -79 -113v-455c0 -91 30 -111 73 -111c44 0 94 20 94 92v77h16v-179h-16
c0 11 -2 18 -14 21c-18 -17 -44 -27 -78 -27c-111 0 -179 98 -179 196z" />
    <glyph glyph-name="Ccircumflex" unicode="&#x108;" horiz-adv-x="376" 
d="M192 739l-2 1c62 56 80 112 83 119h2c2 -7 21 -63 83 -119l-3 -1c-51 16 -76 47 -82 54c-5 -8 -30 -38 -81 -54zM106 190v325c0 102 78 190 181 190c31 0 59 -8 78 -26c10 2 12 9 12 20h16v-159h-16v61c0 46 -27 88 -88 88s-79 -43 -79 -113v-455c0 -91 30 -111 73 -111
c44 0 94 20 94 92v77h16v-179h-16c0 11 -2 18 -14 21c-18 -17 -44 -27 -78 -27c-111 0 -179 98 -179 196z" />
    <glyph glyph-name="Cdotaccent" unicode="&#x10a;" horiz-adv-x="376" 
d="M239 787c0 20 14 35 35 35s35 -15 35 -35c0 -21 -14 -35 -35 -35s-35 14 -35 35zM106 190v325c0 102 78 190 181 190c31 0 59 -8 78 -26c10 2 12 9 12 20h16v-159h-16v61c0 46 -27 88 -88 88s-79 -43 -79 -113v-455c0 -91 30 -111 73 -111c44 0 94 20 94 92v77h16v-179
h-16c0 11 -2 18 -14 21c-18 -17 -44 -27 -78 -27c-111 0 -179 98 -179 196z" />
    <glyph glyph-name="Ccaron" unicode="&#x10c;" horiz-adv-x="376" 
d="M194 858c50 -16 75 -46 81 -55c6 9 31 39 81 55l3 -1c-62 -56 -80 -113 -83 -119h-2c-3 6 -21 63 -83 119zM106 190v325c0 102 78 190 181 190c31 0 59 -8 78 -26c10 2 12 9 12 20h16v-159h-16v61c0 46 -27 88 -88 88s-79 -43 -79 -113v-455c0 -91 30 -111 73 -111
c44 0 94 20 94 92v77h16v-179h-16c0 11 -2 18 -14 21c-18 -17 -44 -27 -78 -27c-111 0 -179 98 -179 196z" />
    <glyph glyph-name="Dcaron" unicode="&#x10e;" horiz-adv-x="440" 
d="M119 858c50 -16 75 -46 81 -55c6 9 31 39 81 55l3 -1c-62 -56 -80 -113 -83 -119h-2c-3 6 -21 63 -83 119zM24 16h45v667h-45v16h216c73 0 158 -78 158 -165v-359c0 -86 -81 -175 -153 -175h-221v16zM174 683v-667h63c39 0 56 40 56 106v457c0 59 -17 104 -64 104h-55z
" />
    <glyph glyph-name="Egrave" unicode="&#xc8;" horiz-adv-x="360" 
d="M222 739c-37 26 -72 63 -92 108h59c6 -37 15 -66 39 -108h-6zM24 0v16h45v667h-45v16h300v-139h-17c0 95 -12 123 -70 123h-64v-317h43c59 0 61 15 61 89h17v-195h-17c0 75 -2 90 -61 90h-43v-334h73c58 0 74 26 74 143h17v-159h-313z" />
    <glyph glyph-name="Eacute" unicode="&#xc9;" horiz-adv-x="360" 
d="M155 739h-5c25 42 33 71 39 108h60c-21 -45 -56 -82 -94 -108zM24 0v16h45v667h-45v16h300v-139h-17c0 95 -12 123 -70 123h-64v-317h43c59 0 61 15 61 89h17v-195h-17c0 75 -2 90 -61 90h-43v-334h73c58 0 74 26 74 143h17v-159h-313z" />
    <glyph glyph-name="Ecircumflex" unicode="&#xca;" horiz-adv-x="360" 
d="M108 739h-3c62 57 81 112 83 119h2c2 -7 21 -62 83 -119l-3 -1c-50 17 -75 47 -81 55c-6 -8 -31 -38 -81 -54zM24 0v16h45v667h-45v16h300v-139h-17c0 95 -12 123 -70 123h-64v-317h43c59 0 61 15 61 89h17v-195h-17c0 75 -2 90 -61 90h-43v-334h73c58 0 74 26 74 143h17
v-159h-313z" />
    <glyph glyph-name="Edieresis" unicode="&#xcb;" horiz-adv-x="360" 
d="M100 787c0 20 15 34 36 34c20 0 36 -14 36 -34c0 -22 -16 -36 -36 -36c-21 0 -36 14 -36 36zM204 787c0 20 16 34 35 34c22 0 37 -14 37 -34c0 -22 -15 -36 -37 -36c-19 0 -35 14 -35 36zM24 0v16h45v667h-45v16h300v-139h-17c0 95 -12 123 -70 123h-64v-317h43
c59 0 61 15 61 89h17v-195h-17c0 75 -2 90 -61 90h-43v-334h73c58 0 74 26 74 143h17v-159h-313z" />
    <glyph glyph-name="Emacron" unicode="&#x112;" horiz-adv-x="360" 
d="M279 785v-26h-184v26h184zM24 0v16h45v667h-45v16h300v-139h-17c0 95 -12 123 -70 123h-64v-317h43c59 0 61 15 61 89h17v-195h-17c0 75 -2 90 -61 90h-43v-334h73c58 0 74 26 74 143h17v-159h-313z" />
    <glyph glyph-name="Ebreve" unicode="&#x114;" horiz-adv-x="360" 
d="M255 827h6c-6 -41 -35 -76 -72 -76c-38 0 -70 35 -74 76h6c7 -39 54 -43 68 -43c12 0 58 3 66 43zM24 0v16h45v667h-45v16h300v-139h-17c0 95 -12 123 -70 123h-64v-317h43c59 0 61 15 61 89h17v-195h-17c0 75 -2 90 -61 90h-43v-334h73c58 0 74 26 74 143h17v-159h-313z
" />
    <glyph glyph-name="Edotaccent" unicode="&#x116;" horiz-adv-x="360" 
d="M153 787c0 20 14 34 34 34c22 0 36 -14 36 -34c0 -22 -14 -36 -36 -36c-20 0 -34 14 -34 36zM24 0v16h45v667h-45v16h300v-139h-17c0 95 -12 123 -70 123h-64v-317h43c59 0 61 15 61 89h17v-195h-17c0 75 -2 90 -61 90h-43v-334h73c58 0 74 26 74 143h17v-159h-313z" />
    <glyph glyph-name="Eogonek" unicode="&#x118;" horiz-adv-x="360" 
d="M24 0v16h45v667h-45v16h300v-139h-17c0 95 -12 123 -70 123h-64v-317h43c59 0 61 15 61 89h17v-195h-17c0 75 -2 90 -61 90h-43v-334h73c58 0 74 26 74 143h17v-159h-78c-48 -26 -49 -61 -38 -81c15 -24 58 -31 79 11l3 -1c-29 -66 -96 -53 -113 -29c-18 28 -6 66 61 100
h-227z" />
    <glyph glyph-name="Ecaron" unicode="&#x11a;" horiz-adv-x="360" 
d="M107 857c50 -16 75 -46 81 -54c7 8 31 38 82 54l3 -1c-63 -56 -80 -112 -83 -119h-2c-3 7 -21 63 -83 119zM24 0v16h45v667h-45v16h300v-139h-17c0 95 -12 123 -70 123h-64v-317h43c59 0 61 15 61 89h17v-195h-17c0 75 -2 90 -61 90h-43v-334h73c58 0 74 26 74 143h17
v-159h-313z" />
    <glyph glyph-name="Gcircumflex" unicode="&#x11c;" horiz-adv-x="415" 
d="M191 739l-3 1c63 56 81 112 83 119h2c3 -7 21 -63 83 -119l-2 -1c-51 16 -76 47 -82 54c-6 -8 -30 -38 -81 -54zM106 524c0 88 75 181 181 181c33 0 60 -9 78 -26c10 3 11 9 11 20h16v-159h-16v59c0 54 -30 90 -89 90c-52 0 -77 -35 -77 -98v-479c0 -66 24 -102 69 -102
c34 0 49 19 49 49v198h-32v16h160v-16h-32v-257h-16c0 26 -5 34 -14 34c-21 0 -53 -40 -117 -40c-79 0 -171 75 -171 197v333z" />
    <glyph glyph-name="Gbreve" unicode="&#x11e;" horiz-adv-x="415" 
d="M339 827h7c-6 -41 -36 -75 -73 -75s-69 35 -74 75h7c7 -38 54 -43 67 -43c12 0 58 4 66 43zM106 524c0 88 75 181 181 181c33 0 60 -9 78 -26c10 3 11 9 11 20h16v-159h-16v59c0 54 -30 90 -89 90c-52 0 -77 -35 -77 -98v-479c0 -66 24 -102 69 -102c34 0 49 19 49 49
v198h-32v16h160v-16h-32v-257h-16c0 26 -5 34 -14 34c-21 0 -53 -40 -117 -40c-79 0 -171 75 -171 197v333z" />
    <glyph glyph-name="Gdotaccent" unicode="&#x120;" horiz-adv-x="415" 
d="M238 787c0 20 14 35 34 35c22 0 36 -15 36 -35c0 -21 -14 -35 -36 -35c-20 0 -34 14 -34 35zM106 524c0 88 75 181 181 181c33 0 60 -9 78 -26c10 3 11 9 11 20h16v-159h-16v59c0 54 -30 90 -89 90c-52 0 -77 -35 -77 -98v-479c0 -66 24 -102 69 -102c34 0 49 19 49 49
v198h-32v16h160v-16h-32v-257h-16c0 26 -5 34 -14 34c-21 0 -53 -40 -117 -40c-79 0 -171 75 -171 197v333z" />
    <glyph glyph-name="Itilde" unicode="&#x128;" horiz-adv-x="218" 
d="M208 813c-5 -49 -29 -61 -47 -61c-30 0 -56 28 -84 28c-20 0 -32 -13 -40 -29l-4 1c5 38 29 60 53 62c28 2 63 -27 84 -27c14 0 25 13 35 28zM24 0v16h45v667h-45v16h194v-16h-45v-667h45v-16h-194z" />
    <glyph glyph-name="Imacron" unicode="&#x12a;" horiz-adv-x="218" 
d="M213 785v-26h-185v26h185zM24 0v16h45v667h-45v16h194v-16h-45v-667h45v-16h-194z" />
    <glyph glyph-name="Ibreve" unicode="&#x12c;" horiz-adv-x="218" 
d="M187 827h7c-5 -41 -36 -75 -73 -75s-69 35 -73 75h6c7 -38 54 -43 67 -43c12 0 59 4 66 43zM24 0v16h45v667h-45v16h194v-16h-45v-667h45v-16h-194z" />
    <glyph glyph-name="Iogonek" unicode="&#x12e;" horiz-adv-x="218" 
d="M24 0v16h45v667h-45v16h194v-16h-45v-667h45v-16h-67c-48 -26 -49 -61 -38 -81c15 -24 58 -31 80 11l2 -1c-29 -66 -96 -53 -113 -29c-18 28 -6 66 61 100h-119z" />
    <glyph glyph-name="Idotaccent" unicode="&#x130;" horiz-adv-x="218" 
d="M86 787c0 20 13 35 34 35c22 0 36 -15 36 -35c0 -21 -14 -35 -36 -35c-21 0 -34 14 -34 35zM24 0v16h45v667h-45v16h194v-16h-45v-667h45v-16h-194z" />
    <glyph glyph-name="Igrave" unicode="&#xcc;" horiz-adv-x="218" 
d="M156 739c-38 26 -73 63 -93 109h59c6 -37 14 -66 39 -109h-5zM24 0v16h45v667h-45v16h194v-16h-45v-667h45v-16h-194z" />
    <glyph glyph-name="Iacute" unicode="&#xcd;" horiz-adv-x="218" 
d="M88 739h-5c25 43 33 72 39 109h59c-20 -46 -55 -83 -93 -109zM24 0v16h45v667h-45v16h194v-16h-45v-667h45v-16h-194z" />
    <glyph glyph-name="Icircumflex" unicode="&#xce;" horiz-adv-x="218" 
d="M39 739l-3 1c63 56 81 112 83 119h2c3 -7 21 -63 83 -119l-2 -1c-51 16 -76 47 -82 54c-6 -8 -30 -38 -81 -54zM24 0v16h45v667h-45v16h194v-16h-45v-667h45v-16h-194z" />
    <glyph glyph-name="Idieresis" unicode="&#xcf;" horiz-adv-x="218" 
d="M34 787c0 20 15 35 35 35c21 0 36 -15 36 -35c0 -21 -15 -35 -36 -35c-20 0 -35 14 -35 35zM137 787c0 20 16 35 35 35c22 0 37 -15 37 -35c0 -21 -15 -35 -37 -35c-19 0 -35 14 -35 35zM24 0v16h45v667h-45v16h194v-16h-45v-667h45v-16h-194z" />
    <glyph glyph-name="Jcircumflex" unicode="&#x134;" horiz-adv-x="363" 
d="M191 739l-3 1c63 56 81 112 83 119h2c3 -7 21 -63 83 -119l-2 -1c-51 16 -76 47 -82 54c-6 -8 -30 -38 -81 -54zM171 -6c-59 0 -133 29 -133 119c0 57 68 81 97 43c24 -30 -6 -64 -6 -99c0 -34 17 -47 45 -47c24 0 47 11 47 62v611h-45v16h194v-16h-45v-564
c0 -93 -94 -125 -154 -125z" />
    <glyph glyph-name="Lacute" unicode="&#x139;" horiz-adv-x="341" 
d="M88 739h-5c25 43 33 72 39 109h59c-20 -46 -55 -83 -93 -109zM24 0v16h45v667h-45v16h194v-16h-45v-667h71c60 0 73 25 73 143h16v-159h-309z" />
    <glyph glyph-name="Ntilde" unicode="&#xd1;" horiz-adv-x="422" 
d="M336 813c-6 -49 -28 -61 -47 -61c-30 0 -57 28 -85 28c-18 0 -31 -13 -39 -29l-4 1c5 38 30 60 52 62c29 2 64 -27 85 -27c14 0 26 13 34 28zM24 16h45v667h-45v16h148l185 -458h2v442h-45v16h107v-16h-45v-683h-24l-264 641h-1v-625h45v-16h-108v16z" />
    <glyph glyph-name="Nacute" unicode="&#x143;" horiz-adv-x="422" 
d="M216 739h-4c24 43 32 72 38 109h59c-20 -46 -54 -83 -93 -109zM24 16h45v667h-45v16h148l185 -458h2v442h-45v16h107v-16h-45v-683h-24l-264 641h-1v-625h45v-16h-108v16z" />
    <glyph glyph-name="Ncaron" unicode="&#x147;" horiz-adv-x="422" 
d="M168 858c50 -16 75 -46 81 -55c6 9 31 39 81 55l3 -1c-62 -56 -80 -113 -83 -119h-2c-3 6 -21 63 -83 119zM24 16h45v667h-45v16h148l185 -458h2v442h-45v16h107v-16h-45v-683h-24l-263 641h-2v-625h45v-16h-108v16z" />
    <glyph glyph-name="uni0145" unicode="&#x145;" horiz-adv-x="422" 
d="M24 16h45v667h-45v16h148l185 -458h2v442h-45v16h107v-16h-45v-683h-24l-264 641h-1v-625h45v-16h-108v16zM229 -107c-26 -11 -50 5 -50 31c0 23 17 36 35 36c20 0 38 -15 38 -53c0 -24 -7 -68 -58 -80l-3 9c30 11 39 38 38 57z" />
    <glyph glyph-name="Ograve" unicode="&#xd2;" horiz-adv-x="465" 
d="M319 739c-38 26 -72 63 -93 109h60c6 -37 13 -66 38 -109h-5zM106 189v329c0 101 80 187 179 187c98 0 180 -84 180 -187v-329c0 -109 -81 -195 -180 -195c-98 0 -179 85 -179 195zM211 593v-486c0 -72 26 -97 74 -97s75 25 75 97v486c0 66 -29 96 -74 96
c-46 0 -75 -31 -75 -96z" />
    <glyph glyph-name="Oacute" unicode="&#xd3;" horiz-adv-x="465" 
d="M252 739h-5c25 43 33 72 39 109h59c-20 -46 -54 -83 -93 -109zM106 189v329c0 101 80 187 179 187c98 0 180 -84 180 -187v-329c0 -109 -81 -195 -180 -195c-98 0 -179 85 -179 195zM211 593v-486c0 -72 26 -97 74 -97s75 25 75 97v486c0 66 -29 96 -74 96
c-46 0 -75 -31 -75 -96z" />
    <glyph glyph-name="Ocircumflex" unicode="&#xd4;" horiz-adv-x="465" 
d="M204 739l-2 1c62 56 80 112 83 119h2c2 -7 21 -63 83 -119l-3 -1c-51 16 -76 47 -82 54c-5 -8 -30 -38 -81 -54zM106 189v329c0 101 80 187 179 187c98 0 180 -84 180 -187v-329c0 -109 -81 -195 -180 -195c-98 0 -179 85 -179 195zM211 593v-486c0 -72 26 -97 74 -97
s75 25 75 97v486c0 66 -29 96 -74 96c-46 0 -75 -31 -75 -96z" />
    <glyph glyph-name="Otilde" unicode="&#xd5;" horiz-adv-x="465" 
d="M372 813c-6 -49 -29 -61 -48 -61c-29 0 -56 28 -84 28c-19 0 -32 -13 -40 -29l-3 1c5 38 30 60 52 62c29 2 63 -27 84 -27c15 0 26 13 34 28zM106 189v329c0 101 80 187 179 187c98 0 180 -84 180 -187v-329c0 -109 -81 -195 -180 -195c-98 0 -179 85 -179 195zM211 593
v-486c0 -72 26 -97 74 -97s75 25 75 97v486c0 66 -29 96 -74 96c-46 0 -75 -31 -75 -96z" />
    <glyph glyph-name="Odieresis" unicode="&#xd6;" horiz-adv-x="465" 
d="M198 787c0 20 15 35 35 35s37 -15 37 -35c0 -21 -17 -35 -37 -35s-35 14 -35 35zM301 787c0 20 16 35 35 35c22 0 37 -15 37 -35c0 -21 -15 -35 -37 -35c-19 0 -35 14 -35 35zM106 189v329c0 101 80 187 179 187c98 0 180 -84 180 -187v-329c0 -109 -81 -195 -180 -195
c-98 0 -179 85 -179 195zM211 593v-486c0 -72 26 -97 74 -97s75 25 75 97v486c0 66 -29 96 -74 96c-46 0 -75 -31 -75 -96z" />
    <glyph glyph-name="Omacron" unicode="&#x14c;" horiz-adv-x="465" 
d="M376 785v-26h-184v26h184zM106 189v329c0 101 80 187 179 187c98 0 180 -84 180 -187v-329c0 -109 -81 -195 -180 -195c-98 0 -179 85 -179 195zM211 593v-486c0 -72 26 -97 74 -97s75 25 75 97v486c0 66 -29 96 -74 96c-46 0 -75 -31 -75 -96z" />
    <glyph glyph-name="Obreve" unicode="&#x14e;" horiz-adv-x="465" 
d="M352 827h6c-6 -41 -37 -75 -73 -75c-37 0 -69 35 -74 75h7c7 -38 53 -43 67 -43c12 0 59 4 67 43zM106 189v329c0 101 80 187 179 187c98 0 180 -84 180 -187v-329c0 -109 -81 -195 -180 -195c-98 0 -179 85 -179 195zM211 593v-486c0 -72 26 -97 74 -97s75 25 75 97v486
c0 66 -29 96 -74 96c-46 0 -75 -31 -75 -96z" />
    <glyph glyph-name="Ohungarumlaut" unicode="&#x150;" horiz-adv-x="465" 
d="M228 740h-5c25 42 32 72 38 109h61c-22 -46 -56 -83 -94 -109zM306 740h-5c25 42 33 72 39 109h60c-22 -46 -56 -83 -94 -109zM106 189v329c0 101 80 187 179 187c98 0 180 -84 180 -187v-329c0 -109 -81 -195 -180 -195c-98 0 -179 85 -179 195zM211 593v-486
c0 -72 26 -97 74 -97s75 25 75 97v486c0 66 -29 96 -74 96c-46 0 -75 -31 -75 -96z" />
    <glyph glyph-name="Racute" unicode="&#x154;" horiz-adv-x="469" 
d="M160 739h-5c24 43 33 72 39 109h59c-21 -46 -55 -83 -93 -109zM297 467v104c0 36 -6 112 -59 112h-65v-326h67c42 0 57 51 57 110zM24 0v16h45v667h-45v16h227c106 0 149 -98 149 -161v-38c0 -64 -47 -159 -146 -159h-1c8 0 86 -5 105 -91l57 -234h47v-16h-150l-60 262
c-13 61 -21 79 -54 79h-25v-325h45v-16h-194z" />
    <glyph glyph-name="Rcaron" unicode="&#x158;" horiz-adv-x="469" 
d="M111 858c50 -16 75 -46 81 -55c6 9 31 39 81 55l3 -1c-62 -56 -80 -113 -83 -119h-2c-3 6 -21 63 -83 119zM297 467v104c0 36 -6 112 -59 112h-65v-326h67c42 0 57 51 57 110zM24 0v16h45v667h-45v16h227c106 0 149 -98 149 -161v-38c0 -64 -47 -159 -146 -159h-1
c8 0 86 -5 105 -91l57 -234h47v-16h-150l-60 262c-13 61 -21 79 -54 79h-25v-325h45v-16h-194z" />
    <glyph glyph-name="Sacute" unicode="&#x15a;" horiz-adv-x="396" 
d="M166 739h-5c24 43 32 72 38 109h60c-21 -46 -56 -83 -93 -109zM82 477c-76 149 32 231 118 231c37 0 71 -11 94 -33c13 2 17 10 17 24h16v-154h-16v49c0 68 -45 91 -86 91c-57 0 -102 -52 -54 -151c46 -95 93 -196 152 -315c64 -129 -19 -227 -117 -227
c-35 0 -78 12 -108 36c-21 -1 -21 -13 -21 -28h-16v174h16v-70c0 -59 57 -92 99 -92c73 0 101 78 32 211c-34 65 -75 151 -126 254z" />
    <glyph glyph-name="Scircumflex" unicode="&#x15c;" horiz-adv-x="396" 
d="M117 739l-3 1c62 56 81 112 83 119h2c2 -7 21 -63 83 -119l-3 -1c-50 16 -75 47 -81 54c-6 -8 -31 -38 -81 -54zM82 477c-76 149 32 231 118 231c37 0 71 -11 94 -33c13 2 17 10 17 24h16v-154h-16v49c0 68 -45 91 -86 91c-57 0 -102 -52 -54 -151
c46 -95 93 -196 152 -315c64 -129 -19 -227 -117 -227c-35 0 -78 12 -108 36c-21 -1 -21 -13 -21 -28h-16v174h16v-70c0 -59 57 -92 99 -92c73 0 101 78 32 211c-34 65 -75 151 -126 254z" />
    <glyph glyph-name="Scedilla" unicode="&#x15e;" horiz-adv-x="396" 
d="M137 -106l8 9c19 -26 76 -40 87 -5c5 19 1 54 -42 51h-14l22 43c-33 2 -72 14 -100 36c-21 -1 -21 -13 -21 -28h-16v174h16v-70c0 -59 57 -92 99 -92c73 0 101 78 32 211c-34 65 -75 151 -126 254c-76 149 32 231 118 231c37 0 71 -11 94 -33c13 2 17 10 17 24h16v-154
h-16v49c0 68 -45 91 -86 91c-57 0 -102 -52 -54 -151c46 -95 93 -196 152 -315c63 -127 -16 -223 -112 -227l-11 -28c36 7 83 -15 83 -53c0 -60 -113 -73 -146 -17z" />
    <glyph glyph-name="Scaron" unicode="&#x160;" horiz-adv-x="396" 
d="M117 858c50 -17 75 -47 81 -55c6 8 31 38 82 55l2 -1c-62 -56 -80 -113 -83 -119h-2c-3 6 -21 63 -83 119zM82 477c-76 149 32 231 118 231c37 0 71 -11 94 -33c13 2 17 10 17 24h16v-154h-16v49c0 68 -45 91 -86 91c-57 0 -102 -52 -54 -151c46 -95 93 -196 152 -315
c64 -129 -19 -227 -117 -227c-35 0 -78 12 -108 36c-21 -1 -21 -13 -21 -28h-16v174h16v-70c0 -59 57 -92 99 -92c73 0 101 78 32 211c-34 65 -75 151 -126 254z" />
    <glyph glyph-name="uni0162" unicode="&#x162;" horiz-adv-x="405" 
d="M125 0v16h45v667h-54c-41 0 -62 -25 -62 -122h-16v138h368v-138h-16c0 97 -21 122 -62 122h-54v-667h45v-16h-90l-11 -28c36 7 83 -15 83 -53c0 -60 -113 -73 -146 -17l8 9c19 -26 76 -40 87 -5c5 19 0 54 -42 51h-14l22 43h-91z" />
    <glyph glyph-name="Tcaron" unicode="&#x164;" horiz-adv-x="405" 
d="M141 858c50 -16 75 -46 81 -55c6 9 31 39 81 55l3 -1c-62 -56 -80 -113 -83 -119h-2c-3 6 -21 63 -83 119zM125 0v16h45v667h-54c-41 0 -62 -25 -62 -122h-16v138h368v-138h-16c0 97 -21 122 -62 122h-54v-667h45v-16h-194z" />
    <glyph glyph-name="Ugrave" unicode="&#xd9;" horiz-adv-x="416" 
d="M271 739c-38 26 -73 63 -93 109h59c6 -37 14 -66 39 -109h-5zM69 683h-45v16h194v-16h-45v-559c0 -93 24 -114 69 -114c35 0 113 14 113 156v517h-45v16h106v-16h-45v-517c0 -102 -34 -172 -140 -172c-70 0 -162 32 -162 158v531z" />
    <glyph glyph-name="Uacute" unicode="&#xda;" horiz-adv-x="416" 
d="M204 739h-5c24 43 32 72 38 109h60c-21 -46 -55 -83 -93 -109zM69 683h-45v16h194v-16h-45v-559c0 -93 24 -114 69 -114c35 0 113 14 113 156v517h-45v16h106v-16h-45v-517c0 -102 -34 -172 -140 -172c-70 0 -162 32 -162 158v531z" />
    <glyph glyph-name="Ucircumflex" unicode="&#xdb;" horiz-adv-x="416" 
d="M155 739l-3 1c63 56 81 112 83 119h2c3 -7 21 -63 83 -119l-2 -1c-51 16 -76 47 -82 54c-6 -8 -30 -38 -81 -54zM69 683h-45v16h194v-16h-45v-559c0 -93 24 -114 69 -114c35 0 113 14 113 156v517h-45v16h106v-16h-45v-517c0 -102 -34 -172 -140 -172
c-70 0 -162 32 -162 158v531z" />
    <glyph glyph-name="Udieresis" unicode="&#xdc;" horiz-adv-x="416" 
d="M149 787c0 20 15 35 35 35c21 0 37 -15 37 -35c0 -21 -16 -35 -37 -35c-20 0 -35 14 -35 35zM252 787c0 20 16 35 36 35c21 0 36 -15 36 -35c0 -21 -15 -35 -36 -35c-20 0 -36 14 -36 35zM69 683h-45v16h194v-16h-45v-559c0 -93 24 -114 69 -114c35 0 113 14 113 156v517
h-45v16h106v-16h-45v-517c0 -102 -34 -172 -140 -172c-70 0 -162 32 -162 158v531z" />
    <glyph glyph-name="Utilde" unicode="&#x168;" horiz-adv-x="416" 
d="M323 813c-5 -49 -29 -61 -47 -61c-29 0 -56 28 -84 28c-19 0 -32 -13 -40 -29l-4 1c6 38 29 60 53 62c28 2 63 -27 84 -27c14 0 25 13 35 28zM69 683h-45v16h194v-16h-45v-559c0 -93 24 -114 69 -114c35 0 113 14 113 156v517h-45v16h106v-16h-45v-517
c0 -102 -34 -172 -140 -172c-70 0 -162 32 -162 158v531z" />
    <glyph glyph-name="Umacron" unicode="&#x16a;" horiz-adv-x="416" 
d="M328 785v-26h-184v26h184zM69 683h-45v16h194v-16h-45v-559c0 -93 24 -114 69 -114c35 0 113 14 113 156v517h-45v16h106v-16h-45v-517c0 -102 -34 -172 -140 -172c-70 0 -162 32 -162 158v531z" />
    <glyph glyph-name="Ubreve" unicode="&#x16c;" horiz-adv-x="416" 
d="M303 827h6c-5 -41 -36 -75 -73 -75c-36 0 -68 35 -73 75h7c6 -38 53 -43 66 -43s59 4 67 43zM69 683h-45v16h194v-16h-45v-559c0 -93 24 -114 69 -114c35 0 113 14 113 156v517h-45v16h106v-16h-45v-517c0 -102 -34 -172 -140 -172c-70 0 -162 32 -162 158v531z" />
    <glyph glyph-name="Uring" unicode="&#x16e;" horiz-adv-x="416" 
d="M188 790c0 29 20 49 48 49s49 -20 49 -49c0 -28 -21 -48 -49 -48s-48 20 -48 48zM208 790c0 -16 12 -28 28 -28c18 0 29 12 29 28c0 18 -11 29 -29 29c-16 0 -28 -11 -28 -29zM69 683h-45v16h194v-16h-45v-559c0 -93 24 -114 69 -114c35 0 113 14 113 156v517h-45v16h106
v-16h-45v-517c0 -102 -34 -172 -140 -172c-70 0 -162 32 -162 158v531z" />
    <glyph glyph-name="Uhungarumlaut" unicode="&#x170;" horiz-adv-x="416" 
d="M180 740h-5c24 42 32 72 38 109h60c-21 -46 -55 -83 -93 -109zM258 740h-5c24 42 33 72 38 109h60c-21 -46 -55 -83 -93 -109zM69 683h-45v16h194v-16h-45v-559c0 -93 24 -114 69 -114c35 0 113 14 113 156v517h-45v16h106v-16h-45v-517c0 -102 -34 -172 -140 -172
c-70 0 -162 32 -162 158v531z" />
    <glyph glyph-name="Uogonek" unicode="&#x172;" horiz-adv-x="416" 
d="M295 -74l3 -1c-29 -66 -96 -53 -113 -29c-19 28 -6 66 58 98h-12c-70 0 -162 32 -162 158v531h-45v16h194v-16h-45v-559c0 -93 24 -114 69 -114c35 0 113 14 113 156v517h-45v16h106v-16h-45v-517c0 -95 -29 -162 -119 -171c-47 -27 -48 -61 -36 -80c14 -25 57 -32 79 11
z" />
    <glyph glyph-name="Wcircumflex" unicode="&#x174;" horiz-adv-x="637" 
d="M255 739l-3 1c63 56 81 112 83 119h2c3 -7 21 -63 83 -119l-2 -1c-51 16 -76 47 -82 54c-6 -8 -30 -38 -81 -54zM265 0h-16l-164 683h-47v16h196v-16h-43l101 -438l46 251l-43 187h-48v16h190v-16h-42l102 -435l76 435h-45v16h109v-16h-47l-120 -683h-17l-104 449z" />
    <glyph glyph-name="Wgrave" unicode="&#x1e80;" horiz-adv-x="637" 
d="M367 739c-37 26 -72 63 -92 109h59c6 -37 14 -66 38 -109h-5zM265 0h-16l-164 683h-47v16h196v-16h-43l101 -438l46 251l-43 187h-48v16h190v-16h-42l102 -435l76 435h-45v16h109v-16h-47l-120 -683h-17l-104 449z" />
    <glyph glyph-name="Wacute" unicode="&#x1e82;" horiz-adv-x="637" 
d="M322 739h-4c24 43 32 72 39 109h59c-21 -46 -55 -83 -94 -109zM265 0h-16l-164 683h-47v16h196v-16h-43l101 -438l46 251l-43 187h-48v16h190v-16h-42l102 -435l76 435h-45v16h109v-16h-47l-120 -683h-17l-104 449z" />
    <glyph glyph-name="Wdieresis" unicode="&#x1e84;" horiz-adv-x="637" 
d="M268 787c0 20 15 35 36 35c19 0 36 -15 36 -35c0 -21 -17 -35 -36 -35c-21 0 -36 14 -36 35zM371 787c0 20 17 35 36 35c21 0 36 -15 36 -35c0 -21 -15 -35 -36 -35c-19 0 -36 14 -36 35zM265 0h-16l-164 683h-47v16h196v-16h-43l101 -438l46 251l-43 187h-48v16h190v-16
h-42l102 -435l76 435h-45v16h109v-16h-47l-120 -683h-17l-104 449z" />
    <glyph glyph-name="Ygrave" unicode="&#x1ef2;" horiz-adv-x="456" 
d="M303 739c-39 26 -73 63 -94 109h60c6 -37 14 -66 38 -109h-4zM166 0v16h47v297l-128 373h-47v13h199v-13h-43l112 -332h2l82 332h-43v13h109v-13h-48l-91 -372v-298h43v-16h-194z" />
    <glyph glyph-name="Yacute" unicode="&#xdd;" horiz-adv-x="456" 
d="M235 739h-5c24 43 33 72 39 109h59c-20 -46 -55 -83 -93 -109zM166 0v16h47v297l-128 373h-47v13h199v-13h-43l112 -332h2l82 332h-43v13h109v-13h-48l-91 -372v-298h43v-16h-194z" />
    <glyph glyph-name="Ycircumflex" unicode="&#x176;" horiz-adv-x="456" 
d="M186 739l-3 1c62 56 81 112 83 119h2c2 -7 21 -63 83 -119l-3 -1c-50 16 -75 47 -81 54c-6 -8 -31 -38 -81 -54zM166 0v16h47v297l-128 373h-47v13h199v-13h-43l112 -332h2l82 332h-43v13h109v-13h-48l-91 -372v-298h43v-16h-194z" />
    <glyph glyph-name="Ydieresis" unicode="&#x178;" horiz-adv-x="456" 
d="M173 787c0 20 15 35 35 35c21 0 37 -15 37 -35c0 -21 -16 -35 -37 -35c-20 0 -35 14 -35 35zM276 787c0 20 16 35 36 35c21 0 36 -15 36 -35c0 -21 -15 -35 -36 -35c-20 0 -36 14 -36 35zM166 0v16h47v297l-128 373h-47v13h199v-13h-43l112 -332h2l82 332h-43v13h109v-13
h-48l-91 -372v-298h43v-16h-194z" />
    <glyph glyph-name="Zacute" unicode="&#x179;" horiz-adv-x="429" 
d="M232 740h-5c25 42 33 72 39 109h58c-19 -46 -54 -83 -92 -109zM297 683h-100c-53 0 -76 -7 -76 -133h-17v149h312l-229 -683h139c60 0 86 5 86 163h16v-179h-358z" />
    <glyph glyph-name="Zdotaccent" unicode="&#x17b;" horiz-adv-x="429" 
d="M229 788c0 20 14 34 35 34c22 0 35 -14 35 -34c0 -21 -13 -36 -35 -36c-21 0 -35 15 -35 36zM297 683h-100c-53 0 -76 -7 -76 -133h-17v149h312l-229 -683h139c60 0 86 5 86 163h16v-179h-358z" />
    <glyph glyph-name="Zcaron" unicode="&#x17d;" horiz-adv-x="429" 
d="M183 859c50 -16 75 -46 81 -54c7 8 31 38 82 54h3c-63 -57 -80 -113 -83 -119h-2c-3 6 -21 62 -83 119h2zM297 683h-100c-53 0 -76 -7 -76 -133h-17v149h312l-229 -683h139c60 0 86 5 86 163h16v-179h-358z" />
    <glyph glyph-name="agrave" unicode="&#xe0;" horiz-adv-x="398" 
d="M260 535c-38 26 -73 63 -93 109h59c6 -37 15 -66 39 -109h-5zM85 389c0 61 52 112 140 112c103 0 150 -68 150 -133v-305c0 -28 7 -40 17 -40c12 0 19 17 19 34h16c0 -40 -28 -64 -73 -65c-39 0 -75 20 -79 55c-16 -34 -53 -52 -92 -52s-107 26 -107 107v56
c0 116 157 118 198 160v103c0 42 -22 65 -55 65c-48 -1 -42 -48 -36 -71c12 -32 13 -88 -43 -88c-45 0 -55 37 -55 62zM274 300c-24 -22 -101 -31 -101 -106v-116c0 -44 19 -59 38 -59c27 0 63 35 63 72v209z" />
    <glyph glyph-name="aacute" unicode="&#xe1;" horiz-adv-x="398" 
d="M192 535h-4c24 43 32 72 38 109h60c-21 -46 -55 -83 -94 -109zM85 389c0 61 52 112 140 112c103 0 150 -68 150 -133v-305c0 -28 7 -40 17 -40c12 0 19 17 19 34h16c0 -40 -28 -64 -73 -65c-39 0 -75 20 -79 55c-16 -34 -53 -52 -92 -52s-107 26 -107 107v56
c0 116 157 118 198 160v103c0 42 -22 65 -55 65c-48 -1 -42 -48 -36 -71c12 -32 13 -88 -43 -88c-45 0 -55 37 -55 62zM274 300c-24 -22 -101 -31 -101 -106v-116c0 -44 19 -59 38 -59c27 0 63 35 63 72v209z" />
    <glyph glyph-name="acircumflex" unicode="&#xe2;" horiz-adv-x="398" 
d="M144 535l-3 1c62 56 81 112 83 119h2c2 -7 21 -63 83 -119l-3 -1c-50 16 -75 47 -81 54c-6 -8 -31 -38 -81 -54zM85 389c0 61 52 112 140 112c103 0 150 -68 150 -133v-305c0 -28 7 -40 17 -40c12 0 19 17 19 34h16c0 -40 -28 -64 -73 -65c-39 0 -75 20 -79 55
c-16 -34 -53 -52 -92 -52s-107 26 -107 107v56c0 116 157 118 198 160v103c0 42 -22 65 -55 65c-48 0 -42 -48 -36 -71c12 -32 13 -88 -43 -88c-45 0 -55 37 -55 62zM274 300c-24 -22 -101 -31 -101 -106v-116c0 -44 19 -59 38 -59c27 0 63 35 63 72v209z" />
    <glyph glyph-name="atilde" unicode="&#xe3;" horiz-adv-x="398" 
d="M318 609c-5 -49 -28 -61 -47 -61c-29 0 -55 28 -84 28c-19 0 -32 -13 -39 -29l-5 1c6 38 30 60 53 62c28 2 63 -27 85 -27c13 0 24 13 34 28zM85 389c0 61 52 112 140 112c103 0 150 -68 150 -133v-305c0 -28 7 -40 17 -40c12 0 19 17 19 34h16c0 -40 -28 -64 -73 -65
c-39 0 -75 20 -79 55c-16 -34 -53 -52 -92 -52s-107 26 -107 107v56c0 116 157 118 198 160v103c0 42 -22 65 -55 65c-48 -1 -42 -48 -36 -71c12 -32 13 -88 -43 -88c-45 0 -55 37 -55 62zM274 300c-24 -22 -101 -31 -101 -106v-116c0 -44 19 -59 38 -59c27 0 63 35 63 72
v209z" />
    <glyph glyph-name="adieresis" unicode="&#xe4;" horiz-adv-x="398" 
d="M138 583c0 20 15 35 35 35c21 0 37 -15 37 -35c0 -21 -16 -35 -37 -35c-20 0 -35 14 -35 35zM241 583c0 20 16 35 35 35c22 0 37 -15 37 -35c0 -21 -15 -35 -37 -35c-19 0 -35 14 -35 35zM85 389c0 61 52 112 140 112c103 0 150 -68 150 -133v-305c0 -28 7 -40 17 -40
c12 0 19 17 19 34h16c0 -40 -28 -64 -73 -65c-39 0 -75 20 -79 55c-16 -34 -53 -52 -92 -52s-107 26 -107 107v56c0 116 157 118 198 160v103c0 42 -22 65 -55 65c-48 -1 -42 -48 -36 -71c12 -32 13 -88 -43 -88c-45 0 -55 37 -55 62zM274 300c-24 -22 -101 -31 -101 -106
v-116c0 -44 19 -59 38 -59c27 0 63 35 63 72v209z" />
    <glyph glyph-name="aring" unicode="&#xe5;" horiz-adv-x="398" 
d="M177 586c0 29 20 49 49 49c28 0 48 -20 48 -49c0 -28 -20 -48 -48 -48c-29 0 -49 20 -49 48zM197 586c0 -16 12 -28 29 -28s29 12 29 28c0 18 -12 29 -29 29s-29 -11 -29 -29zM85 389c0 61 52 112 140 112c103 0 150 -68 150 -133v-305c0 -28 7 -40 17 -40
c12 0 19 17 19 34h16c0 -40 -28 -64 -73 -65c-39 0 -75 20 -79 55c-16 -34 -53 -52 -92 -52s-107 26 -107 107v56c0 116 157 118 198 160v103c0 42 -22 65 -55 65c-48 -1 -42 -48 -36 -71c12 -32 13 -88 -43 -88c-45 0 -55 37 -55 62zM274 300c-24 -22 -101 -31 -101 -106
v-116c0 -44 19 -59 38 -59c27 0 63 35 63 72v209z" />
    <glyph glyph-name="amacron" unicode="&#x101;" horiz-adv-x="398" 
d="M317 581v-26h-185v26h185zM85 389c0 61 52 112 140 112c103 0 150 -68 150 -133v-305c0 -28 7 -40 17 -40c12 0 19 17 19 34h16c0 -40 -28 -64 -73 -65c-39 0 -75 20 -79 55c-16 -34 -53 -52 -92 -52s-107 26 -107 107v56c0 116 157 118 198 160v103c0 42 -22 65 -55 65
c-48 -1 -42 -48 -36 -71c12 -32 13 -88 -43 -88c-45 0 -55 37 -55 62zM274 300c-24 -22 -101 -31 -101 -106v-116c0 -44 19 -59 38 -59c27 0 63 35 63 72v209z" />
    <glyph glyph-name="abreve" unicode="&#x103;" horiz-adv-x="398" 
d="M289 623h7c-6 -41 -36 -75 -73 -75s-69 35 -74 75h7c7 -38 54 -43 67 -43c12 0 58 4 66 43zM85 389c0 61 52 112 140 112c103 0 150 -68 150 -133v-305c0 -28 7 -40 17 -40c12 0 19 17 19 34h16c0 -40 -28 -64 -73 -65c-39 0 -75 20 -79 55c-16 -34 -53 -52 -92 -52
s-107 26 -107 107v56c0 116 157 118 198 160v103c0 42 -22 65 -55 65c-48 -1 -42 -48 -36 -71c12 -32 13 -88 -43 -88c-45 0 -55 37 -55 62zM274 300c-24 -22 -101 -31 -101 -106v-116c0 -44 19 -59 38 -59c27 0 63 35 63 72v209z" />
    <glyph glyph-name="aogonek" unicode="&#x105;" horiz-adv-x="398" 
d="M381 -70l3 -1c-29 -66 -97 -53 -113 -29c-18 27 -7 63 54 96c-26 8 -47 25 -50 51c-16 -34 -53 -52 -92 -52s-107 26 -107 107v56c0 116 157 118 198 160v103c0 42 -22 65 -55 65c-48 -1 -42 -48 -36 -71c12 -32 13 -88 -43 -88c-45 0 -55 37 -55 62c0 61 52 112 140 112
c103 0 150 -68 150 -133v-305c0 -28 7 -40 17 -40c12 0 19 17 19 34h16c0 -40 -28 -64 -73 -65c-7 0 -15 1 -22 3c-40 -26 -40 -58 -30 -76c15 -24 58 -31 79 11zM274 300c-24 -22 -101 -31 -101 -106v-116c0 -44 19 -59 38 -59c27 0 63 35 63 72v209z" />
    <glyph glyph-name="aeacute" unicode="&#x1fd;" horiz-adv-x="565" 
d="M277 535h-4c25 43 32 72 38 109h60c-21 -46 -55 -83 -94 -109zM85 388c1 62 54 113 139 113c47 0 82 -14 107 -35c25 21 57 35 96 35c88 0 145 -73 145 -143v-114h-195v-161c0 -37 16 -72 62 -72c66 0 117 63 117 125v45h16v-46c0 -60 -45 -140 -140 -140
c-71 0 -125 45 -146 98l-1 -1c0 -65 -49 -97 -102 -97c-44 0 -107 30 -107 107v56c0 116 165 121 198 161v102c0 42 -22 65 -54 64c-34 0 -53 -27 -37 -71c24 -54 -7 -87 -43 -87c-42 0 -55 31 -55 61zM377 422v-162h95v162c0 24 -9 63 -44 63c-36 0 -51 -39 -51 -63z
M274 300c-26 -23 -101 -31 -101 -106v-117c0 -43 18 -58 38 -58c26 0 63 35 63 72v209z" />
    <glyph glyph-name="ccedilla" unicode="&#xe7;" horiz-adv-x="364" 
d="M168 -103l8 9c18 -27 75 -40 86 -6c6 20 1 55 -41 52h-14l22 43c-81 1 -153 63 -153 145v230c0 50 58 131 159 131c85 0 131 -58 131 -116c0 -42 -26 -60 -53 -60c-35 0 -71 28 -46 86c19 46 -1 74 -34 74c-34 0 -57 -29 -57 -69v-332c0 -50 25 -73 60 -73
c68 0 119 65 119 125v45h16v-46c0 -58 -42 -135 -130 -140l-11 -28c36 7 84 -16 84 -54c0 -59 -114 -72 -146 -16z" />
    <glyph glyph-name="cacute" unicode="&#x107;" horiz-adv-x="364" 
d="M171 535h-5c25 43 33 72 39 109h59c-20 -46 -55 -83 -93 -109zM76 370c0 50 58 131 159 131c85 0 131 -58 131 -116c0 -42 -26 -60 -53 -60c-35 0 -71 28 -46 86c19 46 -1 74 -34 74c-34 0 -57 -29 -57 -69v-332c0 -50 25 -73 60 -73c68 0 119 65 119 125v45h16v-46
c0 -60 -45 -140 -139 -140c-82 0 -156 62 -156 145v230z" />
    <glyph glyph-name="ccircumflex" unicode="&#x109;" horiz-adv-x="364" 
d="M143 535l-2 1c62 56 80 112 83 119h2c2 -7 21 -63 83 -119l-3 -1c-51 16 -76 47 -82 54c-5 -8 -30 -38 -81 -54zM76 370c0 50 58 131 159 131c85 0 131 -58 131 -116c0 -42 -26 -60 -53 -60c-35 0 -71 28 -46 86c19 46 -1 74 -34 74c-34 0 -57 -29 -57 -69v-332
c0 -50 25 -73 60 -73c68 0 119 65 119 125v45h16v-46c0 -60 -45 -140 -139 -140c-82 0 -156 62 -156 145v230z" />
    <glyph glyph-name="cdotaccent" unicode="&#x10b;" horiz-adv-x="364" 
d="M197 583c0 20 13 34 35 34c21 0 35 -14 35 -34c0 -22 -14 -36 -35 -36c-22 0 -35 14 -35 36zM76 370c0 50 58 131 159 131c85 0 131 -58 131 -116c0 -42 -26 -60 -53 -60c-35 0 -71 28 -46 86c19 46 -1 74 -34 74c-34 0 -57 -29 -57 -69v-332c0 -50 25 -73 60 -73
c68 0 119 65 119 125v45h16v-46c0 -60 -45 -140 -139 -140c-82 0 -156 62 -156 145v230z" />
    <glyph glyph-name="ccaron" unicode="&#x10d;" horiz-adv-x="364" 
d="M143 652c50 -17 75 -47 81 -55c6 8 31 38 81 55l3 -1c-62 -56 -80 -113 -83 -119h-2c-3 6 -21 63 -83 119zM76 370c0 50 58 131 159 131c85 0 131 -58 131 -116c0 -42 -26 -60 -53 -60c-35 0 -71 28 -46 86c19 46 -1 74 -34 74c-34 0 -57 -29 -57 -69v-332
c0 -50 25 -73 60 -73c68 0 119 65 119 125v45h16v-46c0 -60 -45 -140 -139 -140c-82 0 -156 62 -156 145v230z" />
    <glyph glyph-name="egrave" unicode="&#xe8;" horiz-adv-x="365" 
d="M261 535c-38 26 -73 63 -93 109h59c6 -37 14 -66 39 -109h-5zM76 361c0 60 58 140 151 140c88 0 144 -73 144 -143v-114h-195v-161c0 -37 17 -72 63 -72c65 0 116 63 116 125v45h17v-46c0 -60 -45 -140 -140 -140c-93 0 -156 76 -156 145v221zM176 422v-162h95v162
c0 24 -9 63 -44 63c-36 0 -51 -39 -51 -63z" />
    <glyph glyph-name="eacute" unicode="&#xe9;" horiz-adv-x="365" 
d="M193 535h-5c25 43 33 72 39 109h59c-20 -46 -55 -83 -93 -109zM76 361c0 60 58 140 151 140c88 0 144 -73 144 -143v-114h-195v-161c0 -37 17 -72 63 -72c65 0 116 63 116 125v45h17v-46c0 -60 -45 -140 -140 -140c-93 0 -156 76 -156 145v221zM176 422v-162h95v162
c0 24 -9 63 -44 63c-36 0 -51 -39 -51 -63z" />
    <glyph glyph-name="ecircumflex" unicode="&#xea;" horiz-adv-x="365" 
d="M145 535l-3 1c62 56 81 112 83 119h2c2 -7 21 -63 83 -119l-3 -1c-50 16 -75 47 -81 54c-6 -8 -31 -38 -81 -54zM76 361c0 60 58 140 151 140c88 0 144 -73 144 -143v-114h-195v-161c0 -37 17 -72 63 -72c65 0 116 63 116 125v45h17v-46c0 -60 -45 -140 -140 -140
c-93 0 -156 76 -156 145v221zM176 422v-162h95v162c0 24 -9 63 -44 63c-36 0 -51 -39 -51 -63z" />
    <glyph glyph-name="edieresis" unicode="&#xeb;" horiz-adv-x="365" 
d="M139 583c0 20 15 35 35 35c21 0 36 -15 36 -35c0 -21 -15 -35 -36 -35c-20 0 -35 14 -35 35zM242 583c0 20 16 35 35 35c22 0 37 -15 37 -35c0 -21 -15 -35 -37 -35c-19 0 -35 14 -35 35zM76 361c0 60 58 140 151 140c88 0 144 -73 144 -143v-114h-195v-161
c0 -37 17 -72 63 -72c65 0 116 63 116 125v45h17v-46c0 -60 -45 -140 -140 -140c-93 0 -156 76 -156 145v221zM176 422v-162h95v162c0 24 -9 63 -44 63c-36 0 -51 -39 -51 -63z" />
    <glyph glyph-name="emacron" unicode="&#x113;" horiz-adv-x="365" 
d="M318 581v-26h-185v26h185zM76 361c0 60 58 140 151 140c88 0 144 -73 144 -143v-114h-195v-161c0 -37 17 -72 63 -72c65 0 116 63 116 125v45h17v-46c0 -60 -45 -140 -140 -140c-93 0 -156 76 -156 145v221zM176 422v-162h95v162c0 24 -9 63 -44 63
c-36 0 -51 -39 -51 -63z" />
    <glyph glyph-name="ebreve" unicode="&#x115;" horiz-adv-x="365" 
d="M293 623h7c-6 -41 -36 -75 -73 -75s-69 35 -74 75h7c7 -38 53 -43 67 -43c12 0 58 4 66 43zM76 361c0 60 59 140 151 140c88 0 145 -73 145 -143v-114h-195v-161c0 -37 17 -72 63 -72c65 0 116 63 116 125v45h16v-46c0 -60 -45 -140 -139 -140c-93 0 -157 76 -157 145
v221zM177 422v-162h95v162c0 24 -9 63 -45 63c-35 0 -50 -39 -50 -63z" />
    <glyph glyph-name="edotaccent" unicode="&#x117;" horiz-adv-x="365" 
d="M191 583c0 20 13 35 34 35c22 0 36 -15 36 -35c0 -21 -14 -35 -36 -35c-21 0 -34 14 -34 35zM76 361c0 60 58 140 151 140c88 0 144 -73 144 -143v-114h-195v-161c0 -37 17 -72 63 -72c65 0 116 63 116 125v45h17v-46c0 -60 -45 -140 -140 -140c-93 0 -156 76 -156 145
v221zM176 422v-162h95v162c0 24 -9 63 -44 63c-36 0 -51 -39 -51 -63z" />
    <glyph glyph-name="eogonek" unicode="&#x119;" horiz-adv-x="365" 
d="M296 -73l3 -1c-29 -66 -96 -52 -113 -29c-19 28 -6 66 56 98h-10c-93 0 -156 76 -156 145v221c0 60 58 140 151 140c88 0 144 -73 144 -143v-114h-195v-161c0 -37 17 -72 63 -72c65 0 116 63 116 125v45h17v-46c0 -56 -39 -129 -120 -139c-46 -27 -47 -60 -35 -79
c14 -25 57 -32 79 10zM176 422v-162h95v162c0 24 -9 63 -44 63c-36 0 -51 -39 -51 -63z" />
    <glyph glyph-name="ecaron" unicode="&#x11b;" horiz-adv-x="365" 
d="M146 654c50 -17 75 -47 81 -55c6 8 31 38 81 55l3 -1c-62 -56 -80 -113 -83 -119h-2c-3 6 -21 63 -83 119zM76 361c0 60 58 140 151 140c88 0 144 -73 144 -143v-114h-195v-161c0 -37 17 -72 63 -72c65 0 116 63 116 125v45h17v-46c0 -60 -45 -140 -140 -140
c-93 0 -156 76 -156 145v221zM176 422v-162h95v162c0 24 -9 63 -44 63c-36 0 -51 -39 -51 -63z" />
    <glyph glyph-name="gcircumflex" unicode="&#x11d;" horiz-adv-x="383" 
d="M74 534l-2 1c62 56 80 112 83 119h2c2 -7 21 -63 83 -119l-3 -1c-51 16 -76 47 -82 55c-5 -8 -30 -39 -81 -55zM12 289v77c0 68 56 134 141 134c30 0 58 -8 82 -21c1 10 3 19 9 29c13 24 39 40 63 40c15 0 30 -6 42 -18c30 -31 6 -73 -24 -74c-10 -1 -20 2 -30 13
c-11 13 -25 39 -40 19c-4 -7 -5 -13 -4 -20c31 -22 52 -57 52 -98v-84c0 -101 -77 -140 -139 -140c-24 0 -50 5 -75 17c-50 -35 -57 -80 27 -80h132c61 0 95 -51 95 -106c0 -68 -56 -150 -195 -150c-106 0 -152 50 -152 92c0 30 23 58 63 70c-83 27 -71 139 15 182
c-35 22 -62 60 -62 118zM113 438v-231c0 -27 16 -45 46 -45c27 0 43 11 43 45v230c0 34 -17 47 -45 47c-27 0 -44 -14 -44 -46zM51 -74c0 -38 34 -79 114 -79s116 42 116 80c0 29 -19 56 -58 56h-122c-31 0 -50 -27 -50 -57z" />
    <glyph glyph-name="gbreve" unicode="&#x11f;" horiz-adv-x="383" 
d="M222 623h7c-6 -41 -36 -75 -73 -75c-36 0 -68 35 -73 75h7c6 -38 53 -43 66 -43c12 0 59 4 66 43zM12 289v77c0 68 56 134 141 134c30 0 58 -8 82 -21c1 10 3 19 9 29c13 24 39 40 63 40c15 0 30 -6 42 -18c30 -31 6 -73 -24 -74c-10 -1 -20 2 -30 13
c-11 13 -25 39 -40 19c-4 -7 -5 -13 -4 -20c31 -22 52 -57 52 -98v-84c0 -101 -77 -140 -139 -140c-24 0 -50 5 -75 17c-50 -35 -57 -80 27 -80h132c58 0 95 -51 95 -106c0 -69 -56 -150 -195 -150c-106 0 -152 50 -152 92c0 30 23 58 63 70c-83 27 -71 139 15 182
c-35 22 -62 60 -62 118zM113 438v-231c0 -27 16 -45 46 -45c27 0 43 11 43 45v230c0 34 -17 47 -45 47c-27 0 -44 -14 -44 -46zM51 -74c0 -38 34 -79 114 -79s116 42 116 80c0 29 -22 56 -58 56h-122c-31 0 -50 -27 -50 -57z" />
    <glyph glyph-name="gdotaccent" unicode="&#x121;" horiz-adv-x="383" 
d="M121 583c0 20 14 35 35 35s34 -15 34 -35c0 -21 -13 -35 -34 -35s-35 14 -35 35zM12 289v77c0 68 56 134 141 134c30 0 58 -8 82 -21c1 10 3 19 9 29c13 24 39 40 63 40c15 0 30 -6 42 -18c30 -31 6 -73 -24 -74c-10 -1 -20 2 -30 13c-11 13 -25 39 -40 19
c-4 -7 -5 -13 -4 -20c31 -22 52 -57 52 -98v-84c0 -101 -77 -140 -139 -140c-24 0 -50 5 -75 17c-50 -35 -57 -80 27 -80h132c58 0 95 -51 95 -106c0 -69 -56 -150 -195 -150c-106 0 -152 50 -152 92c0 30 23 58 63 70c-83 27 -71 139 15 182c-35 22 -62 60 -62 118z
M113 438v-231c0 -27 16 -45 46 -45c27 0 43 11 43 45v230c0 34 -17 47 -45 47c-27 0 -44 -14 -44 -46zM51 -74c0 -38 34 -79 114 -79s116 42 116 80c0 29 -22 56 -58 56h-122c-31 0 -50 -27 -50 -57z" />
    <glyph glyph-name="hcircumflex" unicode="&#x125;" horiz-adv-x="396" 
d="M150 729l-3 1c62 56 81 112 83 119h2c2 -7 21 -63 83 -119l-3 -1c-50 16 -75 47 -81 54c-6 -8 -31 -38 -81 -54zM24 0v16h39v673h-39v16h135v-275c19 45 57 68 95 68c45 0 106 -35 106 -105v-377h39v-16h-172v16h34v410c0 22 -7 46 -29 46c-32 0 -73 -48 -73 -102v-354
h35v-16h-170z" />
    <glyph glyph-name="igrave" unicode="&#xec;" horiz-adv-x="195" 
d="M150 535c-38 26 -73 63 -93 109h59c6 -37 14 -66 39 -109h-5zM28 0v16h36v463h-36v16h135v-479h36v-16h-171z" />
    <glyph glyph-name="iacute" unicode="&#xed;" horiz-adv-x="195" 
d="M82 535h-5c25 43 33 72 39 109h59c-20 -46 -55 -83 -93 -109zM28 0v16h36v463h-36v16h135v-479h36v-16h-171z" />
    <glyph glyph-name="icircumflex" unicode="&#xee;" horiz-adv-x="183" 
d="M20 537h-3c62 57 81 112 83 119h2c2 -7 21 -62 83 -119l-3 -1c-50 17 -75 47 -81 55c-6 -8 -31 -38 -81 -54zM16 0v16h36v463h-36v16h135v-479h35v-16h-170z" />
    <glyph glyph-name="idieresis" unicode="&#xef;" horiz-adv-x="196" 
d="M26 583c0 20 15 35 35 35c21 0 36 -15 36 -35c0 -21 -15 -35 -36 -35c-20 0 -35 14 -35 35zM129 583c0 20 16 35 35 35c22 0 37 -15 37 -35c0 -21 -15 -35 -37 -35c-19 0 -35 14 -35 35zM26 0v16h36v463h-36v16h135v-479h36v-16h-171z" />
    <glyph glyph-name="itilde" unicode="&#x129;" horiz-adv-x="196" 
d="M201 609c-6 -49 -29 -61 -48 -61c-29 0 -55 28 -84 28c-19 0 -32 -13 -40 -29l-3 1c5 38 29 60 52 62c29 2 63 -27 85 -27c14 0 25 13 34 28zM27 0v16h36v463h-36v16h135v-479h36v-16h-171z" />
    <glyph glyph-name="imacron" unicode="&#x12b;" horiz-adv-x="195" 
d="M199 581v-26h-185v26h185zM21 0v16h35v463h-35v16h134v-479h36v-16h-170z" />
    <glyph glyph-name="ibreve" unicode="&#x12d;" horiz-adv-x="196" 
d="M181 623h6c-5 -41 -35 -75 -72 -75s-69 35 -73 75h6c6 -38 54 -43 67 -43c12 0 59 4 66 43zM28 0v16h36v463h-36v16h135v-479h36v-16h-171z" />
    <glyph glyph-name="iogonek" unicode="&#x12f;" horiz-adv-x="195" 
d="M57 615c0 31 24 54 55 54c32 0 56 -23 56 -54c0 -32 -24 -56 -56 -56c-31 0 -55 24 -55 56zM24 0v16h39v463h-39v16h135v-479h39v-16h-72c-48 -26 -49 -61 -37 -81c14 -24 57 -31 79 11l3 -1c-29 -66 -96 -53 -113 -29c-18 28 -6 66 61 100h-95z" />
    <glyph glyph-name="uni0237" unicode="&#x237;" horiz-adv-x="299" 
d="M270 -46c0 -100 -73 -121 -135 -121c-54 0 -119 17 -119 92c0 54 55 73 85 42c23 -22 10 -58 5 -71c-18 -49 6 -49 22 -49c40 0 46 54 46 84v552h-35v12h131v-541z" />
    <glyph glyph-name="jcircumflex" unicode="&#x135;" horiz-adv-x="299" 
d="M142 530l-3 1c63 56 81 112 83 119h2c3 -7 21 -63 83 -119l-2 -1c-51 16 -76 47 -82 54c-6 -8 -30 -38 -81 -54zM270 -50c0 -100 -73 -123 -136 -123c-57 0 -118 23 -118 98c0 54 56 68 85 38c21 -23 10 -51 5 -64c-18 -46 2 -56 22 -56c39 0 46 53 46 84v552h-36v16h132
v-545z" />
    <glyph glyph-name="lacute" unicode="&#x13a;" horiz-adv-x="195" 
d="M79 739h-5c25 43 33 72 39 109h59c-20 -46 -55 -83 -93 -109zM24 0v16h39v673h-39v16h135v-689h39v-16h-174z" />
    <glyph glyph-name="ntilde" unicode="&#xf1;" 
d="M296 609c-5 -49 -28 -61 -47 -61c-29 0 -55 28 -84 28c-19 0 -32 -13 -40 -29l-4 1c5 38 30 60 52 62c29 2 64 -27 86 -27c13 0 25 13 34 28zM16 0v16h39v463h-39v16h137v-66c18 45 54 69 94 69c44 0 112 -27 112 -104v-378h39v-16h-175v16h35v403c0 37 -13 54 -34 54
c-36 0 -71 -55 -71 -101v-356h34v-16h-171z" />
    <glyph glyph-name="nacute" unicode="&#x144;" 
d="M176 535h-4c24 43 32 72 38 109h60c-21 -46 -55 -83 -94 -109zM16 0v16h39v463h-39v16h137v-66c18 45 54 69 94 69c44 0 112 -27 112 -104v-378h39v-16h-175v16h35v403c0 37 -13 54 -34 54c-36 0 -71 -55 -71 -101v-356h34v-16h-171z" />
    <glyph glyph-name="ncaron" unicode="&#x148;" 
d="M127 654c50 -17 75 -47 81 -55c7 8 31 38 82 55l3 -1c-63 -56 -80 -113 -83 -119h-2c-3 6 -21 63 -83 119zM16 0v16h39v463h-39v16h137v-66c18 45 54 69 94 69c44 0 112 -27 112 -104v-378h39v-16h-175v16h35v403c0 37 -13 54 -34 54c-36 0 -71 -55 -71 -101v-356h34v-16
h-171z" />
    <glyph glyph-name="ograve" unicode="&#xf2;" horiz-adv-x="381" 
d="M263 535c-39 26 -73 63 -93 109h59c6 -37 14 -66 38 -109h-4zM76 141v213c0 69 59 147 152 147c91 0 154 -78 154 -147v-213c0 -71 -58 -146 -150 -146c-91 0 -156 75 -156 146zM176 418v-342c0 -32 22 -65 55 -65c32 0 51 33 51 65v342c0 32 -20 67 -52 67
c-33 0 -54 -35 -54 -67z" />
    <glyph glyph-name="oacute" unicode="&#xf3;" horiz-adv-x="381" 
d="M195 535h-4c24 43 32 72 38 109h59c-20 -46 -54 -83 -93 -109zM76 141v213c0 69 59 147 152 147c91 0 154 -78 154 -147v-213c0 -71 -58 -146 -150 -146c-91 0 -156 75 -156 146zM176 418v-342c0 -32 22 -65 55 -65c32 0 51 33 51 65v342c0 32 -20 67 -52 67
c-33 0 -54 -35 -54 -67z" />
    <glyph glyph-name="ocircumflex" unicode="&#xf4;" horiz-adv-x="381" 
d="M147 535l-3 1c62 56 81 112 83 119h2c2 -7 21 -63 83 -119l-3 -1c-50 16 -75 47 -81 54c-6 -8 -31 -38 -81 -54zM76 141v213c0 69 59 147 152 147c91 0 154 -78 154 -147v-213c0 -71 -58 -146 -150 -146c-91 0 -156 75 -156 146zM176 418v-342c0 -32 22 -65 55 -65
c32 0 51 33 51 65v342c0 32 -20 67 -52 67c-33 0 -54 -35 -54 -67z" />
    <glyph glyph-name="otilde" unicode="&#xf5;" horiz-adv-x="381" 
d="M315 609c-6 -49 -28 -61 -47 -61c-30 0 -57 28 -85 28c-18 0 -31 -13 -40 -29l-3 1c5 38 30 60 53 62c28 2 63 -27 84 -27c14 0 25 13 34 28zM76 141v213c0 69 59 147 152 147c91 0 154 -78 154 -147v-213c0 -71 -58 -146 -150 -146c-91 0 -156 75 -156 146zM176 418
v-342c0 -32 22 -65 55 -65c32 0 51 33 51 65v342c0 32 -20 67 -52 67c-33 0 -54 -35 -54 -67z" />
    <glyph glyph-name="odieresis" unicode="&#xf6;" horiz-adv-x="381" 
d="M141 583c0 20 15 35 35 35c21 0 37 -15 37 -35c0 -21 -16 -35 -37 -35c-20 0 -35 14 -35 35zM244 583c0 20 16 35 35 35c22 0 37 -15 37 -35c0 -21 -15 -35 -37 -35c-19 0 -35 14 -35 35zM76 141v213c0 69 59 147 152 147c91 0 154 -78 154 -147v-213
c0 -71 -58 -146 -150 -146c-91 0 -156 75 -156 146zM176 418v-342c0 -32 22 -65 55 -65c32 0 51 33 51 65v342c0 32 -20 67 -52 67c-33 0 -54 -35 -54 -67z" />
    <glyph glyph-name="omacron" unicode="&#x14d;" horiz-adv-x="381" 
d="M319 581v-26h-184v26h184zM76 141v213c0 69 59 147 152 147c91 0 154 -78 154 -147v-213c0 -71 -58 -146 -150 -146c-91 0 -156 75 -156 146zM176 418v-342c0 -32 22 -65 55 -65c32 0 51 33 51 65v342c0 32 -20 67 -52 67c-33 0 -54 -35 -54 -67z" />
    <glyph glyph-name="obreve" unicode="&#x14f;" horiz-adv-x="381" 
d="M295 623h6c-5 -41 -36 -75 -73 -75s-69 35 -73 75h6c7 -38 53 -43 67 -43c13 0 59 4 67 43zM76 141v213c0 69 59 147 152 147c91 0 154 -78 154 -147v-213c0 -71 -58 -146 -150 -146c-91 0 -156 75 -156 146zM176 418v-342c0 -32 22 -65 55 -65c32 0 51 33 51 65v342
c0 32 -20 67 -52 67c-33 0 -54 -35 -54 -67z" />
    <glyph glyph-name="ohungarumlaut" unicode="&#x151;" horiz-adv-x="381" 
d="M171 536h-5c25 42 33 72 39 109h60c-22 -46 -56 -83 -94 -109zM249 536h-4c24 42 32 72 38 109h60c-21 -46 -56 -83 -94 -109zM76 141v213c0 69 59 147 152 147c91 0 154 -78 154 -147v-213c0 -71 -58 -146 -150 -146c-91 0 -156 75 -156 146zM176 418v-342
c0 -32 22 -65 55 -65c32 0 51 33 51 65v342c0 32 -20 67 -52 67c-33 0 -54 -35 -54 -67z" />
    <glyph glyph-name="racute" unicode="&#x155;" horiz-adv-x="343" 
d="M148 535h-5c24 43 32 72 38 109h60c-21 -46 -55 -83 -93 -109zM16 0v16h39v463h-39v16h135v-62c12 35 36 61 81 61c62 0 108 -51 108 -107c0 -42 -23 -62 -55 -62c-50 0 -58 51 -41 91c5 22 8 59 -26 59c-49 0 -67 -76 -67 -110v-349h39v-16h-174z" />
    <glyph glyph-name="rcaron" unicode="&#x159;" horiz-adv-x="343" 
d="M107 654c50 -17 75 -47 81 -55c6 8 31 38 81 55l3 -1c-62 -56 -80 -113 -83 -119h-2c-3 6 -21 63 -83 119zM16 0v16h39v463h-39v16h135v-62c12 35 36 61 81 61c62 0 108 -51 108 -107c0 -42 -23 -62 -55 -62c-50 0 -58 51 -41 91c5 22 8 59 -26 59
c-49 0 -67 -76 -67 -110v-349h39v-16h-174z" />
    <glyph glyph-name="sacute" unicode="&#x15b;" horiz-adv-x="327" 
d="M127 535h-5c24 43 33 72 39 109h59c-20 -46 -55 -83 -93 -109zM49 138v-57c0 -42 48 -66 86 -66c49 0 80 38 28 128c-20 35 -85 145 -106 182c-67 110 33 176 106 175c25 1 52 -7 73 -23c12 0 22 3 22 18h16v-124h-16v29c0 56 -37 77 -72 77c-41 0 -81 -30 -41 -99
c49 -86 101 -176 123 -215c54 -93 -28 -170 -114 -170c-30 0 -64 9 -88 27c-11 -1 -17 -6 -17 -20h-16v138h16z" />
    <glyph glyph-name="scircumflex" unicode="&#x15d;" horiz-adv-x="328" 
d="M79 535l-3 1c63 56 81 112 83 119h2c3 -7 21 -63 83 -119l-2 -1c-51 16 -76 47 -82 54c-5 -8 -30 -38 -81 -54zM50 138v-57c0 -42 49 -66 86 -66c49 0 80 38 28 128c-30 52 -71 123 -106 182c-66 110 34 176 106 175c25 1 52 -7 74 -23c11 0 22 3 22 18h16v-124h-16v29
c0 56 -38 77 -73 77c-40 0 -81 -30 -41 -99c50 -86 101 -176 124 -215c53 -93 -29 -170 -115 -170c-29 0 -64 9 -88 27c-10 -1 -17 -6 -17 -20h-16v138h16z" />
    <glyph glyph-name="scedilla" unicode="&#x15f;" horiz-adv-x="327" 
d="M85 -105l8 9c18 -26 76 -40 86 -5c6 19 1 54 -42 51h-14l23 43c-28 2 -58 11 -80 27c-11 -1 -17 -6 -17 -20h-16v138h16v-57c0 -42 48 -66 86 -66c49 0 80 38 28 128c-20 35 -85 145 -106 182c-67 110 33 176 106 175c25 1 52 -7 73 -23c12 0 22 3 22 18h16v-124h-16v29
c0 56 -37 77 -72 77c-41 0 -81 -30 -41 -99c49 -86 101 -176 123 -215c54 -93 -28 -170 -109 -170l-12 -28c36 7 83 -16 83 -54c0 -59 -113 -72 -145 -16z" />
    <glyph glyph-name="scaron" unicode="&#x161;" horiz-adv-x="328" 
d="M81 653c50 -16 75 -46 81 -55c6 9 31 39 81 55l3 -1c-62 -56 -80 -113 -83 -119h-2c-3 6 -21 63 -83 119zM50 138v-57c0 -42 49 -66 86 -66c49 0 80 38 28 128c-30 52 -71 123 -106 182c-66 110 34 176 106 175c25 1 52 -7 74 -23c11 0 22 3 22 18h16v-124h-16v29
c0 56 -38 77 -73 77c-40 0 -81 -30 -41 -99c50 -86 101 -176 124 -215c53 -93 -29 -170 -115 -170c-29 0 -64 9 -88 27c-10 -1 -17 -6 -17 -20h-16v138h16z" />
    <glyph glyph-name="uni0163" unicode="&#x163;" horiz-adv-x="258" 
d="M104 -104l9 9c18 -26 76 -40 86 -5c6 19 1 54 -42 51h-13l21 43c-38 2 -93 24 -93 91v394h-56v16h56v113l98 33v-146h86v-16h-86v-424c0 -27 8 -37 24 -37c15 0 33 13 33 48h17c0 -47 -29 -69 -65 -72l-12 -28c36 7 83 -15 83 -53c0 -60 -113 -73 -146 -17z" />
    <glyph glyph-name="ugrave" unicode="&#xf9;" 
d="M225 535c-38 26 -73 63 -93 109h59c6 -37 14 -66 39 -109h-5zM398 16v-16h-136v67c-19 -45 -55 -70 -96 -70c-44 0 -111 30 -111 104v378h-39v16h140v-420c0 -34 13 -53 32 -53c41 0 74 60 74 99v358h-39v16h136v-479h39z" />
    <glyph glyph-name="uacute" unicode="&#xfa;" 
d="M157 535h-5c25 43 33 72 39 109h59c-20 -46 -55 -83 -93 -109zM398 16v-16h-136v67c-19 -45 -55 -70 -96 -70c-44 0 -111 30 -111 104v378h-39v16h140v-420c0 -34 13 -53 32 -53c41 0 74 60 74 99v358h-39v16h136v-479h39z" />
    <glyph glyph-name="ucircumflex" unicode="&#xfb;" 
d="M108 535l-3 1c63 56 81 112 83 119h2c3 -7 21 -63 83 -119l-2 -1c-51 16 -76 47 -82 54c-6 -8 -30 -38 -81 -54zM398 16v-16h-136v67c-19 -45 -55 -70 -96 -70c-44 0 -111 30 -111 104v378h-39v16h140v-420c0 -34 13 -53 32 -53c41 0 74 60 74 99v358h-39v16h136v-479h39
z" />
    <glyph glyph-name="udieresis" unicode="&#xfc;" 
d="M103 583c0 20 15 35 35 35c21 0 36 -15 36 -35c0 -21 -15 -35 -36 -35c-20 0 -35 14 -35 35zM206 583c0 20 16 35 35 35c22 0 37 -15 37 -35c0 -21 -15 -35 -37 -35c-19 0 -35 14 -35 35zM398 16v-16h-136v67c-19 -45 -55 -70 -96 -70c-44 0 -111 30 -111 104v378h-39v16
h140v-420c0 -34 13 -53 32 -53c41 0 74 60 74 99v358h-39v16h136v-479h39z" />
    <glyph glyph-name="utilde" unicode="&#x169;" 
d="M277 609c-5 -49 -29 -61 -47 -61c-30 0 -56 28 -84 28c-20 0 -32 -13 -40 -29l-4 1c5 38 29 60 53 62c28 2 63 -27 84 -27c14 0 25 13 35 28zM398 16v-16h-136v67c-19 -45 -55 -70 -96 -70c-44 0 -111 30 -111 104v378h-39v16h140v-420c0 -34 13 -53 32 -53
c41 0 74 60 74 99v358h-39v16h136v-479h39z" />
    <glyph glyph-name="umacron" unicode="&#x16b;" 
d="M282 581v-26h-185v26h185zM398 16v-16h-136v67c-19 -45 -55 -70 -96 -70c-44 0 -111 30 -111 104v378h-39v16h140v-420c0 -34 13 -53 32 -53c41 0 74 60 74 99v358h-39v16h136v-479h39z" />
    <glyph glyph-name="ubreve" unicode="&#x16d;" 
d="M256 623h7c-5 -41 -36 -75 -73 -75s-69 35 -73 75h6c7 -38 54 -43 67 -43c12 0 59 4 66 43zM398 16v-16h-136v67c-19 -45 -55 -70 -96 -70c-44 0 -111 30 -111 104v378h-39v16h140v-420c0 -34 13 -53 32 -53c41 0 74 60 74 99v358h-39v16h136v-479h39z" />
    <glyph glyph-name="uring" unicode="&#x16f;" 
d="M142 586c0 29 20 49 48 49s49 -20 49 -49c0 -28 -21 -48 -49 -48s-48 20 -48 48zM162 586c0 -16 11 -28 28 -28c18 0 29 12 29 28c0 18 -11 29 -29 29c-17 0 -28 -11 -28 -29zM398 16v-16h-136v67c-19 -45 -55 -70 -96 -70c-44 0 -111 30 -111 104v378h-39v16h140v-420
c0 -34 13 -53 32 -53c41 0 74 60 74 99v358h-39v16h136v-479h39z" />
    <glyph glyph-name="uhungarumlaut" unicode="&#x171;" 
d="M133 536h-5c25 42 33 72 39 109h59c-20 -46 -55 -83 -93 -109zM211 536h-4c24 42 32 72 38 109h60c-21 -46 -56 -83 -94 -109zM398 16v-16h-136v67c-19 -45 -55 -70 -96 -70c-44 0 -111 30 -111 104v378h-39v16h140v-420c0 -34 13 -53 32 -53c41 0 74 60 74 99v358h-39
v16h136v-479h39z" />
    <glyph glyph-name="uogonek" unicode="&#x173;" 
d="M369 -68l3 -1c-29 -66 -96 -53 -113 -29c-19 28 -6 66 57 98h-54v67c-19 -45 -55 -70 -96 -70c-44 0 -111 30 -111 104v378h-39v16h140v-420c0 -34 13 -53 32 -53c41 0 74 60 74 99v358h-39v16h136v-479h39v-16h-74c-45 -26 -46 -60 -34 -79c14 -25 57 -32 79 11z" />
    <glyph glyph-name="wcircumflex" unicode="&#x175;" horiz-adv-x="566" 
d="M233 535l-3 1c62 56 81 112 83 119h2c2 -7 21 -63 83 -119l-3 -1c-50 16 -75 47 -81 54c-6 -8 -31 -38 -81 -54zM209 0h-12l-135 479h-42v16h181v-16h-36l74 -268l47 218l-15 50h-41v16h181v-16h-37l74 -262l56 262h-36v16h97v-16h-43l-104 -479h-11l-111 391z" />
    <glyph glyph-name="wgrave" unicode="&#x1e81;" horiz-adv-x="566" 
d="M348 535c-37 26 -72 63 -93 109h60c6 -37 14 -66 39 -109h-6zM209 0h-12l-135 479h-42v16h181v-16h-36l74 -268l47 218l-15 50h-41v16h181v-16h-37l74 -262l56 262h-36v16h97v-16h-43l-104 -479h-11l-111 391z" />
    <glyph glyph-name="wacute" unicode="&#x1e83;" horiz-adv-x="566" 
d="M281 535h-5c25 43 33 72 39 109h60c-21 -46 -56 -83 -94 -109zM209 0h-12l-135 479h-42v16h181v-16h-36l74 -268l47 218l-15 50h-41v16h181v-16h-37l74 -262l56 262h-36v16h97v-16h-43l-104 -479h-11l-111 391z" />
    <glyph glyph-name="wdieresis" unicode="&#x1e85;" horiz-adv-x="567" 
d="M229 583c0 20 15 35 35 35s37 -15 37 -35c0 -21 -17 -35 -37 -35s-35 14 -35 35zM332 583c0 20 16 35 35 35c22 0 37 -15 37 -35c0 -21 -15 -35 -37 -35c-19 0 -35 14 -35 35zM211 0h-12l-134 479h-43v16h181v-16h-36l74 -268l47 218l-14 50h-42v16h181v-16h-36l73 -262
l56 262h-36v16h97v-16h-43l-104 -479h-11l-110 391z" />
    <glyph glyph-name="ygrave" unicode="&#x1ef3;" horiz-adv-x="369" 
d="M244 535c-37 26 -72 63 -92 109h59c6 -37 15 -66 39 -109h-6zM183 -118c-12 -50 -40 -69 -65 -69c-24 0 -45 17 -45 49c0 26 13 48 69 57c14 4 35 10 43 41l9 41l-130 478h-42v16h181v-16h-36l77 -272l66 272h-36v16h95v-16h-40z" />
    <glyph glyph-name="yacute" unicode="&#xfd;" horiz-adv-x="369" 
d="M177 535h-4c24 43 32 72 38 109h60c-21 -46 -56 -83 -94 -109zM183 -118c-12 -50 -40 -69 -65 -69c-24 0 -45 17 -45 49c0 26 13 48 69 57c14 4 35 10 43 41l9 41l-130 478h-42v16h181v-16h-36l77 -272l66 272h-36v16h95v-16h-40z" />
    <glyph glyph-name="ydieresis" unicode="&#xff;" horiz-adv-x="369" 
d="M123 583c0 20 15 35 35 35s36 -15 36 -35c0 -21 -16 -35 -36 -35s-35 14 -35 35zM226 583c0 20 16 35 35 35c22 0 37 -15 37 -35c0 -21 -15 -35 -37 -35c-19 0 -35 14 -35 35zM183 -118c-12 -50 -40 -69 -65 -69c-24 0 -45 17 -45 49c0 26 13 48 69 57c14 4 35 10 43 41
l9 41l-130 478h-42v16h181v-16h-36l77 -272l66 272h-36v16h95v-16h-40z" />
    <glyph glyph-name="ycircumflex" unicode="&#x177;" horiz-adv-x="369" 
d="M128 535l-2 1c62 56 80 112 83 119h2c2 -7 21 -63 83 -119l-3 -1c-51 16 -76 47 -82 54c-5 -8 -30 -38 -81 -54zM183 -118c-12 -50 -40 -69 -65 -69c-24 0 -45 17 -45 49c0 26 13 48 69 57c14 4 35 10 43 41l9 41l-130 478h-42v16h181v-16h-36l77 -272l66 272h-36v16h95
v-16h-40z" />
    <glyph glyph-name="zacute" unicode="&#x17a;" horiz-adv-x="341" 
d="M147 535h-5c24 43 32 72 38 109h59c-20 -46 -54 -83 -92 -109zM294 119h16v-119h-294l179 479h-67c-50 0 -63 -8 -63 -82h-16v98h261l-179 -479h102c49 0 61 6 61 103z" />
    <glyph glyph-name="zdotaccent" unicode="&#x17c;" horiz-adv-x="341" 
d="M144 583c0 20 14 35 34 35c22 0 36 -15 36 -35c0 -21 -14 -35 -36 -35c-20 0 -34 14 -34 35zM294 119h16v-119h-294l179 479h-67c-50 0 -63 -8 -63 -82h-16v98h261l-179 -479h102c49 0 61 6 61 103z" />
    <glyph glyph-name="zcaron" unicode="&#x17e;" horiz-adv-x="341" 
d="M98 654c50 -16 75 -46 81 -55c7 9 31 39 82 55l3 -1c-63 -56 -80 -113 -83 -119h-2c-3 6 -21 63 -83 119zM294 119h16v-119h-294l179 479h-67c-50 0 -63 -8 -63 -82h-16v98h261l-179 -479h102c49 0 61 6 61 103z" />
    <glyph glyph-name="section" unicode="&#xa7;" horiz-adv-x="404" 
d="M49 36v-57c0 -42 48 -66 86 -66c49 0 80 38 28 128c-20 34 -85 145 -106 181c-67 111 33 176 105 176c18 0 38 -4 55 -13c-28 47 -68 116 -84 144c-66 110 34 176 106 176c25 0 52 -8 74 -24c11 0 22 3 22 18h16v-124h-16v29c0 56 -38 77 -73 77c-41 0 -81 -30 -41 -99
c49 -86 101 -176 124 -215c53 -93 -29 -170 -114 -170c-15 0 -31 3 -45 8c34 -61 66 -116 82 -145c54 -92 -28 -169 -114 -169c-30 0 -64 9 -88 27c-14 -1 -17 -6 -17 -20h-16v138h16zM145 275l27 -48c13 -6 27 -9 41 -9c47 0 78 39 26 129c-2 4 -5 8 -8 13
c-14 10 -30 15 -46 15c-40 0 -80 -30 -40 -100z" />
    <glyph glyph-name="zerowidthspace" unicode="&#x200b;" horiz-adv-x="1000" 
 />
    <glyph glyph-name="U00A0" horiz-adv-x="416" 
 />
    <glyph glyph-name="uni00A0" unicode="&#xa0;" horiz-adv-x="276" 
 />
    <glyph glyph-name="uni00AD" unicode="&#xad;" horiz-adv-x="412" 
d="M106 400h305v-49h-305v49z" />
    <glyph glyph-name="commaaccent" horiz-adv-x="174" 
d="M137 206c-40 -17 -77 7 -77 49c0 36 26 56 55 56c31 0 60 -23 60 -82c0 -38 -12 -104 -92 -119l-4 14c46 14 59 52 58 82z" />
    <glyph glyph-name="commaaccent.salt" horiz-adv-x="174" 
d="M137 206c-40 -17 -77 7 -77 49c0 36 26 56 55 56c31 0 60 -23 60 -82c0 -38 -12 -104 -92 -119l-4 14c46 14 59 52 58 82z" />
    <glyph glyph-name="uniF8FF" unicode="&#xf8ff;" horiz-adv-x="1000" 
 />
    <glyph glyph-name="uni2074" unicode="&#x2074;" horiz-adv-x="246" 
d="M180 621h-2l-62 -161v-1h64v162zM161 405h19v48h-74v4l97 242h18v-240h24l1 -6h-25v-48h20v-7h-80v7z" />
    <glyph glyph-name="uni2215" unicode="&#x2215;" horiz-adv-x="297" 
d="M106 0l156 699h34l-155 -699h-35z" />
    </font>
</defs>
</svg>
